<svg width="96" height="54" viewBox="0 0 96 54" fill="none" xmlns="http://www.w3.org/2000/svg">
<path fill-rule="evenodd" clip-rule="evenodd" d="M35.6995 0.0385991C35.1139 0.105858 34.451 0.304602 33.8633 0.589157C33.3606 0.83247 33.1242 1.0083 32.6503 1.4916C31.403 2.76345 30.9414 4.28194 31.0189 6.85838C31.0764 8.7697 31.3293 9.57384 32.2117 10.6503C32.9709 11.5765 33.775 12.0831 36.7318 13.4981C37.6531 13.939 38.1832 14.3847 38.4059 14.9057C38.744 15.6965 38.7884 17.9573 38.4853 18.9413C38.2199 19.8023 37.6683 20.2346 36.7586 20.2944C35.7781 20.3588 35.118 20.0153 34.8028 19.2766C34.6259 18.8618 34.4537 18.1386 34.4508 17.7978C34.4496 17.6555 34.4243 17.5016 34.3947 17.4558C34.3561 17.3962 33.8378 17.4715 32.5779 17.7196L30.8152 18.0667L30.8416 18.6528C30.8766 19.4293 31.1485 20.4867 31.472 21.1044C32.4034 22.8827 34.3568 23.8083 36.9113 23.6818C39.7126 23.5431 41.3546 22.2818 41.9737 19.7933C42.5017 17.671 42.3527 14.3131 41.6705 12.9603C41.3998 12.4235 40.8608 11.7701 40.3553 11.3659C39.6412 10.7948 39.1203 10.508 37.6305 9.86586C35.7188 9.04169 34.9374 8.44058 34.6973 7.60923C34.5188 6.99149 34.5883 5.27352 34.8154 4.68556C35.0303 4.12946 35.4949 3.64831 35.9316 3.52953C36.6912 3.32295 37.7567 3.56131 38.1133 4.01756C38.3512 4.32192 38.5691 4.99296 38.6534 5.68077L38.731 6.31329L40.4778 5.9025C41.4386 5.67655 42.247 5.46916 42.2741 5.44159C42.3554 5.3594 42.16 4.05356 41.9813 3.48378C41.3926 1.60727 39.88 0.349392 37.8662 0.0617331C37.3679 -0.00944258 36.2237 -0.0216378 35.6995 0.0385991ZM43.4284 1.88857L43.4482 3.57003L45.3027 3.58977L47.1573 3.6095V13.5492L47.1573 23.4889H48.9568H50.7562L50.7562 13.5492V3.6095L52.6108 3.58977L54.4653 3.57003L54.4851 1.88857L54.5049 0.207115L48.9568 0.207115L43.4087 0.207115L43.4284 1.88857ZM56.3383 11.848L56.3383 23.4889H58.1377H59.9372L59.9372 18.6847V13.8805L60.8033 13.8805H61.6694L62.983 18.1119C63.7055 20.4392 64.3755 22.6011 64.4719 22.9161L64.6472 23.4889H66.4866C68.075 23.4889 68.3203 23.474 68.2845 23.3801C68.1659 23.0691 64.9316 13.185 64.9316 13.1336C64.9316 13.1003 65.1234 12.9419 65.3578 12.7818C66.7832 11.8078 67.4853 10.2858 67.6471 7.81988C67.8113 5.3172 67.2918 3.13182 66.2555 1.96596C65.8138 1.46906 64.9653 0.877777 64.3664 0.649542C63.3178 0.250057 62.8646 0.20911 59.4781 0.208075L56.3383 0.207115V11.848ZM73.9031 0.558189C73.7244 1.39744 69.3385 23.3707 69.3385 23.4267C69.3385 23.4609 70.1581 23.4889 71.1598 23.4889H72.9812L73.3299 21.4748C73.5218 20.367 73.7193 19.2778 73.7689 19.0542L73.8589 18.6477L75.9605 18.6282C77.6022 18.6129 78.0699 18.629 78.0971 18.7021C78.1164 18.7535 78.3261 19.8516 78.5633 21.1422L78.9944 23.4889H80.8134C82.0175 23.4889 82.6325 23.463 82.6325 23.4124C82.6325 23.3704 81.5914 18.163 80.3189 11.8404C79.0464 5.51779 78.0053 0.313841 78.0053 0.275925C78.0053 0.235127 77.1862 0.207115 75.9916 0.207115L73.9779 0.207115L73.9031 0.558189ZM84.6891 11.8433V23.4889H86.5253H88.3614V19.0173V14.5457H89.4579C91.8119 14.5457 93.0877 14.1317 94.2406 12.9936C95.4042 11.8448 95.8931 10.3684 95.978 7.74597C96.1177 3.43123 94.9211 1.22752 91.9971 0.414877C91.4384 0.259591 91.2443 0.250204 88.0493 0.224631L84.6891 0.197728V11.8433ZM62.3931 3.71275C63.1503 3.9421 63.621 4.4302 63.9175 5.29355C64.0679 5.73162 64.087 5.92489 64.087 7.00686C64.087 8.38411 64.0011 8.80222 63.5919 9.41767C63.3012 9.8547 62.7508 10.2042 62.1679 10.322C61.9375 10.3686 61.3412 10.4067 60.843 10.4067L59.9372 10.4067V7.00686V3.60699H60.9905C61.6927 3.60699 62.1603 3.64224 62.3931 3.71275ZM91.0093 3.80041C91.7088 4.12436 92.1105 4.67448 92.379 5.67648C92.5596 6.35039 92.5605 8.15794 92.3807 8.92853C92.1994 9.70563 91.8512 10.312 91.4155 10.6093C90.8747 10.9784 90.4548 11.0719 89.3396 11.0719H88.3614V7.33296V3.59398L89.5182 3.61985C90.5018 3.6418 90.7251 3.66885 91.0093 3.80041ZM76.0584 5.76887C76.1277 6.06525 77.4912 14.9762 77.4912 15.1329C77.4912 15.2813 77.456 15.2848 75.9488 15.2848C74.918 15.2848 74.4064 15.259 74.4064 15.207C74.4064 15.1642 74.5865 14.0251 74.8068 12.6756C75.027 11.3261 75.3406 9.29069 75.5035 8.15247C75.8728 5.57308 75.8677 5.60257 75.9507 5.60257C75.9885 5.60257 76.0369 5.67744 76.0584 5.76887ZM12.4627 25.2295C10.9333 25.4391 9.5244 25.8689 8.11986 26.5543C0.985443 30.0361 -1.99639 38.5789 1.40446 45.7938C3.07319 49.3341 6.14235 52.0597 9.87026 53.312C11.2561 53.7776 12.2732 53.9466 13.9589 53.9917C16.0191 54.0466 17.4162 53.8353 19.2105 53.1974C24.5734 51.2906 28.3736 46.2301 28.7115 40.5455C28.9253 36.9476 27.9142 33.5667 25.7896 30.7752C23.4314 27.6768 19.9356 25.6797 16.0174 25.1923C15.1805 25.0882 13.3543 25.1073 12.4627 25.2295ZM15.5568 27.5547C19.1532 27.9359 22.3211 29.8435 24.3255 32.8346C27.0342 36.8767 27.0511 42.2157 24.368 46.2517C22.5714 48.9541 19.8248 50.7857 16.5851 51.442C15.5064 51.6605 13.3421 51.678 12.3064 51.4766C7.2127 50.4861 3.44219 46.6603 2.53291 41.5599C2.33872 40.4704 2.35267 38.5848 2.56339 37.4378C3.70227 31.2392 9.40401 26.9023 15.5568 27.5547ZM62.8935 27.6094L56.1179 27.6286V39.38V51.1313H62.716C66.345 51.1313 75.3185 51.1091 82.6571 51.0821L96 51.0329L96 39.2934V27.5539L82.8345 27.572C75.5934 27.5819 66.62 27.5988 62.8935 27.6094ZM30.8275 27.7511C30.8005 27.7781 30.7785 33.0331 30.7785 39.4289V51.0574H32.5779H34.3774V47.6891V44.3208L35.1119 42.7685C35.5158 41.9149 35.8464 41.1856 35.8464 41.148C35.8464 40.8351 36.1951 41.7089 37.788 46.013C38.7923 48.7264 39.636 50.9721 39.6631 51.0033C39.6902 51.0345 40.5235 51.0511 41.515 51.0403L43.3175 51.0205L40.6746 44.1468C39.2209 40.3663 38.0307 37.2399 38.0296 37.1992C38.0286 37.1586 39.0573 35.0328 40.3156 32.4754C41.5739 29.918 42.6035 27.7971 42.6035 27.7624C42.6035 27.7276 41.7747 27.7081 40.7616 27.719L38.9196 27.7387L36.7404 32.4501C35.5417 35.0414 34.528 37.1506 34.4876 37.1373C34.4399 37.1215 34.4075 35.462 34.3952 32.4074L34.3763 27.7018L32.6263 27.7018C31.6639 27.7018 30.8543 27.7239 30.8275 27.7511ZM44.4153 27.7511C44.3883 27.7781 44.3663 28.5431 44.3663 29.451V31.1016H47.3128C50.0835 31.1016 50.2571 31.1093 50.2237 31.231C50.2041 31.3021 48.8285 35.0332 47.167 39.5222L44.1459 47.6841V49.3708V51.0574H49.1037H54.0614V49.3575V47.6575H51.0133C49.3369 47.6575 47.9652 47.6292 47.9652 47.5946C47.9652 47.5601 49.3369 43.8108 51.0133 39.263L54.0614 30.9942V29.348V27.7018H49.2628C46.6236 27.7018 44.4422 27.7239 44.4153 27.7511ZM13.4204 30.7814C13.3532 30.849 13.3603 40.2093 13.4276 40.3111C13.4902 40.4059 18.8521 40.5029 20.235 40.4344L21.0834 40.3924V39.4542V38.5162L19.5291 38.4675C18.6743 38.4407 17.3853 38.4188 16.6647 38.4188H15.3545V34.6203C15.3545 31.2248 15.3421 30.8171 15.2383 30.7769C15.0801 30.7159 13.4815 30.7197 13.4204 30.7814ZM71.6548 37.5811C72.3517 37.8201 72.9374 38.6414 72.9374 39.3796C72.9374 40.363 72.005 41.3013 71.0278 41.3013C70.5785 41.3013 70.0581 41.0716 69.7073 40.7185C68.2717 39.274 69.7317 36.9218 71.6548 37.5811ZM82.9214 37.721C83.5606 38.0711 83.8822 38.6331 83.8795 39.3957C83.8769 40.1522 83.5191 40.7306 82.826 41.0987C82.3522 41.3503 81.6117 41.3287 81.1082 41.0486C80.4517 40.6835 80.1353 40.1321 80.1353 39.3534C80.1353 38.5151 80.6766 37.7849 81.4842 37.534C81.8743 37.4128 82.5096 37.4955 82.9214 37.721Z" fill="black"/>
</svg>
