<svg width="185" height="55" viewBox="0 0 185 55" fill="none" xmlns="http://www.w3.org/2000/svg">
<rect x="0.5" y="0.5" width="184" height="54" rx="27" stroke="white"/>
<path d="M58.5873 34.24C57.6273 34.24 56.7673 34.0933 56.0073 33.8C55.2473 33.4933 54.534 33 53.8673 32.32L54.8073 31.18C55.3807 31.7667 55.9607 32.18 56.5473 32.42C57.134 32.66 57.8073 32.78 58.5673 32.78C58.994 32.78 59.394 32.7267 59.7673 32.62C60.1407 32.5 60.4673 32.3333 60.7473 32.12C61.0273 31.8933 61.2473 31.62 61.4073 31.3C61.5807 30.98 61.6673 30.6133 61.6673 30.2C61.6673 29.36 61.3607 28.74 60.7473 28.34C60.134 27.94 59.2607 27.74 58.1273 27.74H56.6473V26.46H57.7273C58.8873 26.46 59.7207 26.2733 60.2273 25.9C60.734 25.5133 60.9873 24.9467 60.9873 24.2C60.9873 23.5067 60.7407 22.9867 60.2473 22.64C59.7673 22.28 59.1607 22.1 58.4273 22.1C57.814 22.1 57.2473 22.2133 56.7273 22.44C56.2073 22.6533 55.7473 22.9467 55.3473 23.32L54.4473 22.2C54.914 21.7333 55.5007 21.36 56.2073 21.08C56.914 20.7867 57.6673 20.64 58.4673 20.64C59.0807 20.64 59.6407 20.72 60.1473 20.88C60.6673 21.0267 61.1073 21.2467 61.4673 21.54C61.8407 21.82 62.1273 22.1733 62.3273 22.6C62.5273 23.0133 62.6273 23.48 62.6273 24C62.6273 24.6933 62.4607 25.3067 62.1273 25.84C61.794 26.36 61.3073 26.7333 60.6673 26.96V27.04C61.4273 27.1867 62.054 27.54 62.5473 28.1C63.054 28.6467 63.3073 29.3733 63.3073 30.28C63.3073 30.9067 63.1807 31.4667 62.9273 31.96C62.6873 32.4533 62.354 32.8733 61.9273 33.22C61.5007 33.5533 61.0007 33.8067 60.4273 33.98C59.854 34.1533 59.2407 34.24 58.5873 34.24ZM67.9816 34.24C67.1682 34.24 66.4882 34 65.9416 33.52C65.4082 33.04 65.1416 32.36 65.1416 31.48C65.1416 30.4133 65.6149 29.6 66.5616 29.04C67.5082 28.4667 69.0216 28.0667 71.1016 27.84C71.1016 27.5333 71.0682 27.2333 71.0016 26.94C70.9482 26.6467 70.8482 26.3867 70.7016 26.16C70.5549 25.9333 70.3482 25.7533 70.0816 25.62C69.8282 25.4733 69.5016 25.4 69.1016 25.4C68.5416 25.4 68.0149 25.5067 67.5216 25.72C67.0282 25.9333 66.5882 26.1733 66.2016 26.44L65.5616 25.3C66.0149 25.0067 66.5682 24.7267 67.2216 24.46C67.8749 24.18 68.5949 24.04 69.3816 24.04C70.5682 24.04 71.4282 24.4067 71.9616 25.14C72.4949 25.86 72.7616 26.8267 72.7616 28.04V34H71.4016L71.2616 32.84H71.2016C70.7349 33.2267 70.2349 33.56 69.7016 33.84C69.1682 34.1067 68.5949 34.24 67.9816 34.24ZM68.4616 32.92C68.9282 32.92 69.3682 32.8133 69.7816 32.6C70.1949 32.3733 70.6349 32.0467 71.1016 31.62V28.92C70.2882 29.0267 69.6016 29.1533 69.0416 29.3C68.4949 29.4467 68.0482 29.62 67.7016 29.82C67.3682 30.02 67.1216 30.2533 66.9616 30.52C66.8149 30.7733 66.7416 31.0533 66.7416 31.36C66.7416 31.92 66.9082 32.32 67.2416 32.56C67.5749 32.8 67.9816 32.92 68.4616 32.92ZM75.8197 34V24.28H77.4597V28.28H79.3397L80.2997 26.12C80.4864 25.6933 80.673 25.3467 80.8597 25.08C81.0464 24.8133 81.2464 24.6067 81.4597 24.46C81.673 24.3 81.893 24.1933 82.1197 24.14C82.3464 24.0733 82.593 24.04 82.8597 24.04C83.073 24.04 83.2597 24.0733 83.4197 24.14L83.1397 25.68C83.073 25.6533 83.0197 25.64 82.9797 25.64C82.9397 25.64 82.8864 25.64 82.8197 25.64C82.6864 25.64 82.5597 25.66 82.4397 25.7C82.333 25.7267 82.2197 25.7867 82.0997 25.88C81.993 25.9733 81.8797 26.1067 81.7597 26.28C81.6397 26.4533 81.5197 26.68 81.3997 26.96L80.5797 28.88L83.8797 34H82.0797L79.3797 29.62H77.4597V34H75.8197ZM87.8253 34.24C87.012 34.24 86.332 34 85.7853 33.52C85.252 33.04 84.9853 32.36 84.9853 31.48C84.9853 30.4133 85.4586 29.6 86.4053 29.04C87.352 28.4667 88.8653 28.0667 90.9453 27.84C90.9453 27.5333 90.912 27.2333 90.8453 26.94C90.792 26.6467 90.692 26.3867 90.5453 26.16C90.3986 25.9333 90.192 25.7533 89.9253 25.62C89.672 25.4733 89.3453 25.4 88.9453 25.4C88.3853 25.4 87.8586 25.5067 87.3653 25.72C86.872 25.9333 86.432 26.1733 86.0453 26.44L85.4053 25.3C85.8586 25.0067 86.412 24.7267 87.0653 24.46C87.7186 24.18 88.4386 24.04 89.2253 24.04C90.412 24.04 91.272 24.4067 91.8053 25.14C92.3386 25.86 92.6053 26.8267 92.6053 28.04V34H91.2453L91.1053 32.84H91.0453C90.5786 33.2267 90.0786 33.56 89.5453 33.84C89.012 34.1067 88.4386 34.24 87.8253 34.24ZM88.3053 32.92C88.772 32.92 89.212 32.8133 89.6253 32.6C90.0386 32.3733 90.4786 32.0467 90.9453 31.62V28.92C90.132 29.0267 89.4453 29.1533 88.8853 29.3C88.3386 29.4467 87.892 29.62 87.5453 29.82C87.212 30.02 86.9653 30.2533 86.8053 30.52C86.6586 30.7733 86.5853 31.0533 86.5853 31.36C86.5853 31.92 86.752 32.32 87.0853 32.56C87.4186 32.8 87.8253 32.92 88.3053 32.92ZM98.4434 34.24C97.7634 34.24 97.1234 34.1533 96.5234 33.98C95.9234 33.7933 95.3368 33.4667 94.7634 33L95.4634 31.94C95.9168 32.3133 96.3768 32.5733 96.8434 32.72C97.3234 32.8533 97.8101 32.92 98.3034 32.92C98.6368 32.92 98.9501 32.88 99.2434 32.8C99.5368 32.72 99.7901 32.6067 100.003 32.46C100.23 32.3133 100.403 32.1333 100.523 31.92C100.657 31.6933 100.723 31.4467 100.723 31.18C100.723 30.62 100.51 30.2067 100.083 29.94C99.6568 29.6733 99.0434 29.54 98.2434 29.54H96.9034V28.36H98.0034C98.7901 28.36 99.3768 28.2267 99.7634 27.96C100.15 27.68 100.343 27.3 100.343 26.82C100.343 26.3267 100.157 25.96 99.7834 25.72C99.4101 25.4667 98.9234 25.34 98.3234 25.34C97.7634 25.34 97.2768 25.4133 96.8634 25.56C96.4634 25.7067 96.0701 25.92 95.6834 26.2L94.9834 25.12C95.4501 24.7867 95.9568 24.5267 96.5034 24.34C97.0634 24.14 97.6968 24.04 98.4034 24.04C98.8834 24.04 99.3368 24.0933 99.7634 24.2C100.19 24.3067 100.563 24.4667 100.883 24.68C101.203 24.8933 101.457 25.1667 101.643 25.5C101.843 25.8333 101.943 26.22 101.943 26.66C101.943 27.1267 101.803 27.5533 101.523 27.94C101.243 28.3267 100.85 28.62 100.343 28.82V28.9C100.903 29.0467 101.377 29.3133 101.763 29.7C102.163 30.0733 102.363 30.6133 102.363 31.32C102.363 31.7733 102.257 32.18 102.043 32.54C101.83 32.9 101.543 33.2067 101.183 33.46C100.823 33.7133 100.403 33.9067 99.9234 34.04C99.4568 34.1733 98.9634 34.24 98.4434 34.24ZM107.025 34.24C106.211 34.24 105.531 34 104.985 33.52C104.451 33.04 104.185 32.36 104.185 31.48C104.185 30.4133 104.658 29.6 105.605 29.04C106.551 28.4667 108.065 28.0667 110.145 27.84C110.145 27.5333 110.111 27.2333 110.045 26.94C109.991 26.6467 109.891 26.3867 109.745 26.16C109.598 25.9333 109.391 25.7533 109.125 25.62C108.871 25.4733 108.545 25.4 108.145 25.4C107.585 25.4 107.058 25.5067 106.565 25.72C106.071 25.9333 105.631 26.1733 105.245 26.44L104.605 25.3C105.058 25.0067 105.611 24.7267 106.265 24.46C106.918 24.18 107.638 24.04 108.425 24.04C109.611 24.04 110.471 24.4067 111.005 25.14C111.538 25.86 111.805 26.8267 111.805 28.04V34H110.445L110.305 32.84H110.245C109.778 33.2267 109.278 33.56 108.745 33.84C108.211 34.1067 107.638 34.24 107.025 34.24ZM107.505 32.92C107.971 32.92 108.411 32.8133 108.825 32.6C109.238 32.3733 109.678 32.0467 110.145 31.62V28.92C109.331 29.0267 108.645 29.1533 108.085 29.3C107.538 29.4467 107.091 29.62 106.745 29.82C106.411 30.02 106.165 30.2533 106.005 30.52C105.858 30.7733 105.785 31.0533 105.785 31.36C105.785 31.92 105.951 32.32 106.285 32.56C106.618 32.8 107.025 32.92 107.505 32.92ZM116.729 34V25.62H113.469V24.28H121.629V25.62H118.369V34H116.729ZM123.788 34V24.28H125.428V27.86H127.268C127.842 27.86 128.362 27.92 128.828 28.04C129.308 28.16 129.715 28.3467 130.048 28.6C130.395 28.84 130.662 29.1533 130.848 29.54C131.035 29.9133 131.128 30.3667 131.128 30.9C131.128 31.4467 131.035 31.9133 130.848 32.3C130.662 32.6867 130.395 33.0067 130.048 33.26C129.715 33.5133 129.308 33.7 128.828 33.82C128.362 33.94 127.842 34 127.268 34H123.788ZM125.428 32.68H127.088C128.702 32.68 129.508 32.0867 129.508 30.9C129.508 30.2867 129.308 29.84 128.908 29.56C128.522 29.28 127.915 29.14 127.088 29.14H125.428V32.68Z" fill="white"/>
</svg>
