<svg width="144" height="86" viewBox="0 0 144 86" fill="none" xmlns="http://www.w3.org/2000/svg">
<path d="M2.01289 72V58.88H3.65289V70.58H8.05289V58.88H9.67289V70.58H14.0729V58.88H15.7129V72H2.01289ZM19.1576 72V62.28H20.7576V66.32C20.7576 66.84 20.7376 67.4133 20.6976 68.04C20.6709 68.6533 20.6376 69.2733 20.5976 69.9H20.6776C20.8642 69.5933 21.0776 69.2467 21.3176 68.86C21.5709 68.4733 21.7842 68.1267 21.9576 67.82L25.6376 62.28H27.1776V72H25.5776V67.96C25.5776 67.44 25.5909 66.8733 25.6176 66.26C25.6576 65.6333 25.6976 65 25.7376 64.36H25.6576C25.4709 64.6667 25.2509 65.02 24.9976 65.42C24.7576 65.8067 24.5509 66.1467 24.3776 66.44L20.6776 72H19.1576ZM30.4662 76.1V62.28H31.8262L31.9662 63.4H32.0262C32.4662 63.0267 32.9462 62.7067 33.4662 62.44C33.9995 62.1733 34.5528 62.04 35.1262 62.04C35.7528 62.04 36.3062 62.16 36.7862 62.4C37.2662 62.6267 37.6662 62.96 37.9862 63.4C38.3062 63.8267 38.5462 64.3467 38.7062 64.96C38.8795 65.56 38.9662 66.24 38.9662 67C38.9662 67.8267 38.8528 68.5667 38.6262 69.22C38.3995 69.86 38.0928 70.4067 37.7062 70.86C37.3195 71.3133 36.8728 71.66 36.3662 71.9C35.8595 72.1267 35.3262 72.24 34.7662 72.24C34.3128 72.24 33.8595 72.14 33.4062 71.94C32.9662 71.74 32.5195 71.4667 32.0662 71.12L32.1062 72.82V76.1H30.4662ZM34.4862 70.86C34.8862 70.86 35.2528 70.7733 35.5862 70.6C35.9328 70.4133 36.2262 70.16 36.4662 69.84C36.7195 69.5067 36.9128 69.1 37.0462 68.62C37.1928 68.14 37.2662 67.6 37.2662 67C37.2662 66.4667 37.2195 65.98 37.1262 65.54C37.0328 65.1 36.8795 64.7267 36.6662 64.42C36.4662 64.1 36.1995 63.8533 35.8662 63.68C35.5462 63.5067 35.1595 63.42 34.7062 63.42C34.2928 63.42 33.8728 63.5333 33.4462 63.76C33.0328 63.9867 32.5862 64.3133 32.1062 64.74V69.84C32.5462 70.2133 32.9728 70.48 33.3862 70.64C33.7995 70.7867 34.1662 70.86 34.4862 70.86ZM45.3399 72.24C44.7399 72.24 44.1666 72.1267 43.6199 71.9C43.0866 71.6733 42.6133 71.3467 42.1999 70.92C41.7866 70.48 41.4533 69.9467 41.1999 69.32C40.9599 68.68 40.8399 67.96 40.8399 67.16C40.8399 66.3467 40.9599 65.6267 41.1999 65C41.4533 64.36 41.7866 63.82 42.1999 63.38C42.6133 62.94 43.0866 62.6067 43.6199 62.38C44.1666 62.1533 44.7399 62.04 45.3399 62.04C45.9399 62.04 46.5066 62.1533 47.0399 62.38C47.5866 62.6067 48.0666 62.94 48.4799 63.38C48.8933 63.82 49.2199 64.36 49.4599 65C49.7133 65.6267 49.8399 66.3467 49.8399 67.16C49.8399 67.96 49.7133 68.68 49.4599 69.32C49.2199 69.9467 48.8933 70.48 48.4799 70.92C48.0666 71.3467 47.5866 71.6733 47.0399 71.9C46.5066 72.1267 45.9399 72.24 45.3399 72.24ZM45.3399 70.88C45.7533 70.88 46.1333 70.7933 46.4799 70.62C46.8266 70.4333 47.1199 70.18 47.3599 69.86C47.6133 69.5267 47.8066 69.1333 47.9399 68.68C48.0733 68.2267 48.1399 67.72 48.1399 67.16C48.1399 66.6 48.0733 66.0933 47.9399 65.64C47.8066 65.1733 47.6133 64.7733 47.3599 64.44C47.1199 64.1067 46.8266 63.8533 46.4799 63.68C46.1333 63.4933 45.7533 63.4 45.3399 63.4C44.9266 63.4 44.5466 63.4933 44.1999 63.68C43.8533 63.8533 43.5533 64.1067 43.2999 64.44C43.0599 64.7733 42.8733 65.1733 42.7399 65.64C42.6066 66.0933 42.5399 66.6 42.5399 67.16C42.5399 67.72 42.6066 68.2267 42.7399 68.68C42.8733 69.1333 43.0599 69.5267 43.2999 69.86C43.5533 70.18 43.8533 70.4333 44.1999 70.62C44.5466 70.7933 44.9266 70.88 45.3399 70.88ZM52.3998 72V62.28H54.0398V66.28H55.9198L56.8798 64.12C57.0664 63.6933 57.2531 63.3467 57.4398 63.08C57.6264 62.8133 57.8264 62.6067 58.0398 62.46C58.2531 62.3 58.4731 62.1933 58.6998 62.14C58.9264 62.0733 59.1731 62.04 59.4398 62.04C59.6531 62.04 59.8398 62.0733 59.9998 62.14L59.7198 63.68C59.6531 63.6533 59.5998 63.64 59.5598 63.64C59.5198 63.64 59.4664 63.64 59.3998 63.64C59.2664 63.64 59.1398 63.66 59.0198 63.7C58.9131 63.7267 58.7998 63.7867 58.6798 63.88C58.5731 63.9733 58.4598 64.1067 58.3398 64.28C58.2198 64.4533 58.0998 64.68 57.9798 64.96L57.1598 66.88L60.4598 72H58.6598L55.9598 67.62H54.0398V72H52.3998ZM62.3607 72V62.28H63.9607V66.32C63.9607 66.84 63.9407 67.4133 63.9007 68.04C63.874 68.6533 63.8407 69.2733 63.8007 69.9H63.8807C64.0674 69.5933 64.2807 69.2467 64.5207 68.86C64.774 68.4733 64.9874 68.1267 65.1607 67.82L68.8407 62.28H70.3807V72H68.7807V67.96C68.7807 67.44 68.794 66.8733 68.8207 66.26C68.8607 65.6333 68.9007 65 68.9407 64.36H68.8607C68.674 64.6667 68.454 65.02 68.2007 65.42C67.9607 65.8067 67.754 66.1467 67.5807 66.44L63.8807 72H62.3607ZM73.6693 72V62.28H75.2693V66.32C75.2693 66.84 75.2493 67.4133 75.2093 68.04C75.1826 68.6533 75.1493 69.2733 75.1093 69.9H75.1893C75.376 69.5933 75.5893 69.2467 75.8293 68.86C76.0826 68.4733 76.296 68.1267 76.4693 67.82L80.1493 62.28H81.6893V72H80.0893V67.96C80.0893 67.44 80.1026 66.8733 80.1293 66.26C80.1693 65.6333 80.2093 65 80.2493 64.36H80.1693C79.9826 64.6667 79.7626 65.02 79.5093 65.42C79.2693 65.8067 79.0626 66.1467 78.8893 66.44L75.1893 72H73.6693ZM77.7293 60.54C77.1693 60.54 76.696 60.4533 76.3093 60.28C75.9226 60.1067 75.6026 59.88 75.3493 59.6C75.096 59.3067 74.9093 58.98 74.7893 58.62C74.6693 58.2467 74.6026 57.8667 74.5893 57.48H75.9493C75.9626 57.76 75.996 58.0333 76.0493 58.3C76.116 58.5533 76.216 58.7733 76.3493 58.96C76.496 59.1467 76.676 59.3 76.8893 59.42C77.116 59.5267 77.396 59.58 77.7293 59.58C78.0626 59.58 78.336 59.5267 78.5493 59.42C78.776 59.3 78.956 59.1467 79.0893 58.96C79.236 58.7733 79.336 58.5533 79.3893 58.3C79.456 58.0333 79.496 57.76 79.5093 57.48H80.8693C80.8426 57.8667 80.7693 58.2467 80.6493 58.62C80.5426 58.98 80.3626 59.3067 80.1093 59.6C79.856 59.88 79.536 60.1067 79.1493 60.28C78.7626 60.4533 78.2893 60.54 77.7293 60.54ZM88.9818 72V62.28H92.7218C93.2551 62.28 93.7418 62.3267 94.1818 62.42C94.6218 62.5133 94.9951 62.66 95.3018 62.86C95.6218 63.0467 95.8685 63.3 96.0418 63.62C96.2151 63.9267 96.3018 64.3 96.3018 64.74C96.3018 65.2867 96.1551 65.7333 95.8618 66.08C95.5818 66.4267 95.1885 66.6733 94.6818 66.82V66.88C94.9618 66.9467 95.2218 67.04 95.4618 67.16C95.7151 67.28 95.9351 67.4333 96.1218 67.62C96.3085 67.8067 96.4551 68.0333 96.5618 68.3C96.6685 68.5667 96.7218 68.8733 96.7218 69.22C96.7218 69.7 96.6218 70.1133 96.4218 70.46C96.2351 70.8067 95.9685 71.1 95.6218 71.34C95.2885 71.5667 94.8885 71.7333 94.4218 71.84C93.9551 71.9467 93.4418 72 92.8818 72H88.9818ZM90.6018 66.36H92.4418C93.2551 66.36 93.8351 66.2333 94.1818 65.98C94.5285 65.7133 94.7018 65.3533 94.7018 64.9C94.7018 64.4467 94.5351 64.0933 94.2018 63.84C93.8685 63.5867 93.3218 63.46 92.5618 63.46H90.6018V66.36ZM90.6018 70.82H92.7018C93.5018 70.82 94.0951 70.6733 94.4818 70.38C94.8818 70.0867 95.0818 69.6667 95.0818 69.12C95.0818 68.6267 94.8751 68.24 94.4618 67.96C94.0485 67.68 93.4285 67.54 92.6018 67.54H90.6018V70.82ZM99.138 72V62.28H100.778V65.86H102.158C102.731 65.86 103.251 65.92 103.718 66.04C104.198 66.16 104.605 66.3467 104.938 66.6C105.285 66.84 105.551 67.1533 105.738 67.54C105.925 67.9133 106.018 68.3667 106.018 68.9C106.018 69.4467 105.925 69.9133 105.738 70.3C105.551 70.6867 105.285 71.0067 104.938 71.26C104.605 71.5133 104.198 71.7 103.718 71.82C103.251 71.94 102.731 72 102.158 72H99.138ZM100.778 70.68H101.978C103.591 70.68 104.398 70.0867 104.398 68.9C104.398 68.2867 104.198 67.84 103.798 67.56C103.411 67.28 102.805 67.14 101.978 67.14H100.778V70.68ZM107.698 72V62.28H109.338V72H107.698ZM116.615 72.24C115.161 72.24 114.035 71.7133 113.235 70.66C112.435 69.5933 112.035 68.0733 112.035 66.1C112.035 64.46 112.175 63.14 112.455 62.14C112.748 61.14 113.161 60.3533 113.695 59.78C114.228 59.1933 114.868 58.78 115.615 58.54C116.375 58.2867 117.215 58.0867 118.135 57.94C118.401 57.9 118.628 57.8667 118.815 57.84C119.001 57.8 119.168 57.76 119.315 57.72C119.475 57.68 119.615 57.6333 119.735 57.58C119.868 57.5267 120.008 57.4667 120.155 57.4L120.475 58.9C120.208 59.0733 119.908 59.2067 119.575 59.3C119.255 59.38 118.888 59.4533 118.475 59.52C117.688 59.64 117.008 59.7667 116.435 59.9C115.875 60.0333 115.401 60.26 115.015 60.58C114.641 60.8867 114.348 61.3267 114.135 61.9C113.921 62.4733 113.775 63.26 113.695 64.26C114.121 63.7267 114.621 63.3267 115.195 63.06C115.781 62.78 116.381 62.64 116.995 62.64C117.568 62.64 118.095 62.7467 118.575 62.96C119.055 63.16 119.461 63.46 119.795 63.86C120.141 64.2467 120.408 64.72 120.595 65.28C120.795 65.84 120.895 66.4733 120.895 67.18C120.895 67.9533 120.781 68.6533 120.555 69.28C120.328 69.9067 120.021 70.44 119.635 70.88C119.248 71.32 118.795 71.66 118.275 71.9C117.755 72.1267 117.201 72.24 116.615 72.24ZM116.615 70.88C116.988 70.88 117.328 70.7933 117.635 70.62C117.955 70.4333 118.228 70.18 118.455 69.86C118.695 69.5267 118.875 69.1333 118.995 68.68C119.128 68.2267 119.195 67.7267 119.195 67.18C119.195 66.18 118.968 65.3867 118.515 64.8C118.061 64.2 117.415 63.9 116.575 63.9C116.108 63.9 115.621 64.0267 115.115 64.28C114.608 64.5333 114.108 64.9933 113.615 65.66V66.42C113.615 67.8333 113.861 68.9333 114.355 69.72C114.861 70.4933 115.615 70.88 116.615 70.88ZM127.274 72.24C126.674 72.24 126.1 72.1267 125.554 71.9C125.02 71.6733 124.547 71.3467 124.134 70.92C123.72 70.48 123.387 69.9467 123.134 69.32C122.894 68.68 122.774 67.96 122.774 67.16C122.774 66.3467 122.894 65.6267 123.134 65C123.387 64.36 123.72 63.82 124.134 63.38C124.547 62.94 125.02 62.6067 125.554 62.38C126.1 62.1533 126.674 62.04 127.274 62.04C127.874 62.04 128.44 62.1533 128.974 62.38C129.52 62.6067 130 62.94 130.414 63.38C130.827 63.82 131.154 64.36 131.394 65C131.647 65.6267 131.774 66.3467 131.774 67.16C131.774 67.96 131.647 68.68 131.394 69.32C131.154 69.9467 130.827 70.48 130.414 70.92C130 71.3467 129.52 71.6733 128.974 71.9C128.44 72.1267 127.874 72.24 127.274 72.24ZM127.274 70.88C127.687 70.88 128.067 70.7933 128.414 70.62C128.76 70.4333 129.054 70.18 129.294 69.86C129.547 69.5267 129.74 69.1333 129.874 68.68C130.007 68.2267 130.074 67.72 130.074 67.16C130.074 66.6 130.007 66.0933 129.874 65.64C129.74 65.1733 129.547 64.7733 129.294 64.44C129.054 64.1067 128.76 63.8533 128.414 63.68C128.067 63.4933 127.687 63.4 127.274 63.4C126.86 63.4 126.48 63.4933 126.134 63.68C125.787 63.8533 125.487 64.1067 125.234 64.44C124.994 64.7733 124.807 65.1733 124.674 65.64C124.54 66.0933 124.474 66.6 124.474 67.16C124.474 67.72 124.54 68.2267 124.674 68.68C124.807 69.1333 124.994 69.5267 125.234 69.86C125.487 70.18 125.787 70.4333 126.134 70.62C126.48 70.7933 126.86 70.88 127.274 70.88ZM134.333 76.1V62.28H135.693L135.833 63.4H135.893C136.333 63.0267 136.813 62.7067 137.333 62.44C137.867 62.1733 138.42 62.04 138.993 62.04C139.62 62.04 140.173 62.16 140.653 62.4C141.133 62.6267 141.533 62.96 141.853 63.4C142.173 63.8267 142.413 64.3467 142.573 64.96C142.747 65.56 142.833 66.24 142.833 67C142.833 67.8267 142.72 68.5667 142.493 69.22C142.267 69.86 141.96 70.4067 141.573 70.86C141.187 71.3133 140.74 71.66 140.233 71.9C139.727 72.1267 139.193 72.24 138.633 72.24C138.18 72.24 137.727 72.14 137.273 71.94C136.833 71.74 136.387 71.4667 135.933 71.12L135.973 72.82V76.1H134.333ZM138.353 70.86C138.753 70.86 139.12 70.7733 139.453 70.6C139.8 70.4133 140.093 70.16 140.333 69.84C140.587 69.5067 140.78 69.1 140.913 68.62C141.06 68.14 141.133 67.6 141.133 67C141.133 66.4667 141.087 65.98 140.993 65.54C140.9 65.1 140.747 64.7267 140.533 64.42C140.333 64.1 140.067 63.8533 139.733 63.68C139.413 63.5067 139.027 63.42 138.573 63.42C138.16 63.42 137.74 63.5333 137.313 63.76C136.9 63.9867 136.453 64.3133 135.973 64.74V69.84C136.413 70.2133 136.84 70.48 137.253 70.64C137.667 70.7867 138.033 70.86 138.353 70.86Z" fill="#13191D"/>
<rect x="42" y="83" width="53" height="3" fill="#13191D"/>
<g clip-path="url(#clip0)">
<path d="M72.0005 32.6853C74.8548 32.6853 77.5382 31.5738 79.5565 29.5555C81.5748 27.5372 82.6863 24.8538 82.6863 21.9996C82.6863 19.1453 81.5748 16.4619 79.5565 14.4436C77.5383 12.4253 74.8548 11.3138 72.0005 11.3138C69.1463 11.3138 66.4629 12.4253 64.4446 14.4436C60.2783 18.6099 60.2783 25.3891 64.4446 29.5555C66.4629 31.5738 69.1463 32.6853 72.0005 32.6853V32.6853ZM65.0815 16.2958L65.7093 16.9235C65.8771 17.0913 66.097 17.1752 66.3169 17.1752C66.5368 17.1752 66.7568 17.0913 66.9246 16.9235C67.2602 16.5879 67.2602 16.0438 66.9246 15.7082L66.2964 15.08C67.8988 13.7542 69.8942 13.0325 72.0005 13.0325C74.3957 13.0325 76.6475 13.9653 78.3411 15.659C80.0348 17.3526 80.9676 19.6044 80.9676 21.9996C80.9676 24.1059 80.246 26.1012 78.9201 27.7037L78.2919 27.0755C77.9562 26.7399 77.4121 26.7399 77.0765 27.0755C76.7409 27.4111 76.7409 27.9552 77.0765 28.2908L77.7047 28.9189C76.1022 30.2448 74.1069 30.9664 72.0005 30.9664C69.8942 30.9664 67.8989 30.2448 66.2964 28.9189L66.9246 28.2907C67.2602 27.9551 67.2602 27.411 66.9246 27.0754C66.5891 26.7398 66.0451 26.7398 65.7092 27.0754L65.0814 27.7031C62.3572 24.4033 62.3572 19.5958 65.0815 16.2958V16.2958Z" fill="black"/>
<path d="M94.0007 9.77052C94.0007 9.01446 93.7077 8.30515 93.1757 7.77321L86.2276 0.824981C85.6956 0.29304 84.9862 0 84.2303 0C84.2302 0 84.2303 0 84.2302 0C83.4742 0 82.7648 0.292954 82.2329 0.824895L75.2997 7.75817C74.8592 7.6572 74.4121 7.5753 73.9587 7.51437C70.8663 7.09896 67.6666 7.69544 64.9485 9.19398C64.5328 9.42317 64.3816 9.94583 64.6108 10.3614C64.8399 10.7771 65.3628 10.9281 65.7783 10.6991C70.7739 7.94474 77.0832 8.84139 81.1212 12.8794C86.1499 17.9082 86.15 26.0905 81.1212 31.1192C76.0924 36.148 67.9101 36.148 62.8813 31.1192C58.8434 27.0815 57.9468 20.7725 60.7008 15.7769C60.93 15.3612 60.7787 14.8386 60.3631 14.6095C59.9474 14.3802 59.4248 14.5314 59.1956 14.9471C57.6971 17.6652 57.1007 20.8651 57.5162 23.9571C57.5772 24.4104 57.659 24.8574 57.76 25.2979L50.8267 32.2311C49.7254 33.3324 49.7254 35.1243 50.8267 36.2258L57.7749 43.174C58.3256 43.7247 59.0489 43.9999 59.7722 43.9999C60.4955 43.9999 61.2189 43.7246 61.7695 43.174L68.7085 36.235C69.7908 36.4836 70.8959 36.6088 72.0012 36.6088C75.1753 36.6088 78.3492 35.5837 80.9785 33.5344C81.0164 33.6024 81.0634 33.6666 81.1211 33.7244C81.2889 33.8922 81.5089 33.9761 81.7288 33.9761C81.9487 33.9761 82.1686 33.8922 82.3364 33.7244L83.7261 32.3347C84.0617 31.9991 84.0617 31.455 83.7261 31.1193C83.6683 31.0616 83.6041 31.0145 83.5362 30.9766C86.299 27.4319 87.1988 22.897 86.2367 18.7066L93.1756 11.7677C93.7078 11.2359 94.0007 10.5266 94.0007 9.77052V9.77052ZM63.2487 33.7055L57.0801 39.8742C57.0504 39.9039 57.0244 39.9357 56.9999 39.9683L54.0324 37.0009C54.0651 36.9765 54.0969 36.9504 54.1266 36.9206L60.2928 30.7543C60.7089 31.3081 61.1671 31.836 61.6659 32.3348C62.1673 32.8361 62.6969 33.2924 63.2487 33.7055ZM52.042 33.4465L58.3219 27.1666C58.5983 27.9015 58.9337 28.6112 59.3258 29.2908L52.9113 35.7053C52.8817 35.735 52.8555 35.7668 52.831 35.7994L52.0421 35.0105C51.6108 34.5792 51.6108 33.8777 52.042 33.4465V33.4465ZM60.5542 41.9587C60.123 42.3898 59.4214 42.39 58.9903 41.9587L58.2013 41.1697C58.234 41.1453 58.2658 41.1192 58.2955 41.0895L64.7145 34.6704C65.4001 35.0645 66.1109 35.3994 66.8397 35.6732L60.5542 41.9587ZM83.4482 2.04019C83.6555 1.83283 83.9333 1.71871 84.2303 1.71871C84.5272 1.71871 84.8049 1.83292 85.0123 2.04028L85.8012 2.82925C85.7686 2.85366 85.7368 2.87978 85.7071 2.90952L79.2926 9.324C78.613 8.93188 77.9033 8.59656 77.1684 8.3201L83.4482 2.04019ZM80.7561 10.2911L86.9224 4.1249C86.952 4.09517 86.9781 4.06337 87.0026 4.03072L89.9701 6.99816C89.9374 7.02256 89.9056 7.04869 89.876 7.07833L83.7074 13.2469C83.2943 12.6951 82.838 12.1655 82.3367 11.6642C81.8378 11.1655 81.3098 10.7073 80.7561 10.2911V10.2911ZM91.9605 10.5525L85.6751 16.8379C85.4012 16.1092 85.0664 15.3985 84.6722 14.7128L91.0913 8.29381C91.1209 8.26416 91.147 8.23236 91.1714 8.19971L91.9604 8.98868C92.1678 9.19604 92.282 9.47379 92.282 9.77069C92.282 10.0676 92.1679 10.3452 91.9605 10.5525V10.5525Z" fill="black"/>
<path d="M70.738 26.7115C70.8125 26.7315 70.8873 26.741 70.9609 26.741C71.3403 26.741 71.6876 26.4878 71.7905 26.1038L72.771 22.4442L76.777 18.4382C77.1126 18.1026 77.1126 17.5585 76.777 17.2228C76.4414 16.8872 75.8974 16.8872 75.5616 17.2228L71.3927 21.3917C71.2861 21.4984 71.2094 21.6313 71.1703 21.777L70.1302 25.659C70.0075 26.1176 70.2795 26.5887 70.738 26.7115Z" fill="black"/>
<path d="M62.2731 13.1314C62.7476 13.1314 63.1324 12.7467 63.1324 12.272C63.1324 11.7974 62.7476 11.4127 62.2731 11.4127H62.2725C61.7979 11.4127 61.4134 11.7974 61.4134 12.272C61.4134 12.7467 61.7984 13.1314 62.2731 13.1314V13.1314Z" fill="black"/>
</g>
<defs>
<clipPath id="clip0">
<rect width="44" height="44" fill="white" transform="translate(50)"/>
</clipPath>
</defs>
</svg>
