<svg width="210" height="87" viewBox="0 0 210 87" fill="none" xmlns="http://www.w3.org/2000/svg">
<g clip-path="url(#clip0)">
<path d="M124.001 20.1573L124.001 5.94069C124.001 2.66492 121.336 0 118.06 0H103.844C103.6 0 103.367 0.0965938 103.195 0.268469L100.416 3.04743C99.9413 3.0079 99.4619 2.97593 98.9788 2.95255C92.8646 2.65641 87.6473 3.7229 85.6872 5.66938C84.902 6.44927 84.7629 7.23336 84.7843 7.75362C84.862 9.63067 87.1079 11.319 90.999 12.4648L81.7349 21.729C80.6167 22.8472 80.001 24.339 80.001 25.9297C80.001 27.5205 80.6168 29.0123 81.7349 30.1303L93.7712 42.1667H92.8343C92.3281 42.1667 91.9176 42.577 91.9176 43.0834C91.9176 43.5896 92.3281 44.0001 92.8343 44.0001H111.167C111.674 44.0001 112.084 43.5896 112.084 43.0834C112.084 42.5771 111.674 42.1667 111.167 42.1667H102.371L123.732 20.8056C123.904 20.6336 124.001 20.4004 124.001 20.1573ZM86.6161 7.67783C86.6128 7.59541 86.6024 7.34439 86.9792 6.97013C88.2432 5.71484 92.4394 4.50304 98.6885 4.77538L92.4926 10.9713C88.2419 9.90189 86.6469 8.4211 86.6161 7.67783ZM100.976 40.9696C100.204 41.7415 99.1721 42.1666 98.0712 42.1666C96.9701 42.1666 95.9386 41.7416 95.1669 40.9696L83.0312 28.8338C82.2593 28.0621 81.8341 27.0307 81.8341 25.9297C81.8341 24.8285 82.2593 23.7971 83.0312 23.0253L101.103 4.95361C103.756 5.23102 106.204 5.7646 108.154 6.5022C109.448 6.99145 110.32 7.49667 110.867 7.95128C110.206 8.6148 109.797 9.52901 109.797 10.5372C109.797 10.8216 109.831 11.0982 109.892 11.3641C109.897 11.3866 109.902 11.409 109.908 11.4312C109.91 11.4408 109.912 11.4504 109.915 11.4599C109.915 11.4607 109.915 11.4615 109.916 11.4622C110.327 13.0376 111.762 14.2037 113.464 14.2037C115.486 14.2037 117.13 12.559 117.13 10.5371C117.13 8.51529 115.486 6.87036 113.464 6.87036C113.139 6.87036 112.823 6.91341 112.523 6.99325C111.747 6.17289 110.497 5.42798 108.803 4.78741C107.077 4.13445 104.998 3.63189 102.746 3.31031L104.223 1.83339H118.06C120.325 1.83339 122.167 3.67598 122.167 5.94077L122.167 19.7777L100.976 40.9696ZM113.457 8.97712C113.453 8.88602 113.444 8.79553 113.431 8.70538C113.442 8.70521 113.453 8.70366 113.464 8.70366C114.475 8.70366 115.297 9.52617 115.297 10.5371C115.297 11.5479 114.475 12.3703 113.464 12.3703C112.833 12.3703 112.276 12.0503 111.946 11.5644C113.225 10.6562 113.486 9.67991 113.457 8.97712Z" fill="black"/>
<path d="M119.312 7.74561C118.829 7.89695 118.56 8.41128 118.711 8.89434C118.878 9.42646 118.963 9.97913 118.963 10.5371C118.963 13.5698 116.496 16.0369 113.463 16.0369C110.43 16.0369 107.963 13.5698 107.963 10.5371C107.963 10.0309 107.553 9.62042 107.046 9.62042C106.54 9.62042 106.13 10.0308 106.13 10.5371C106.13 14.5806 109.419 17.8702 113.463 17.8702C117.506 17.8702 120.796 14.5806 120.796 10.5371C120.796 9.79307 120.683 9.0559 120.461 8.34631C120.31 7.86317 119.795 7.59419 119.312 7.74561Z" fill="black"/>
<path d="M118.091 7.00915C118.319 7.00915 118.548 6.92424 118.726 6.75349C119.091 6.40277 119.103 5.82252 118.752 5.45738C118.602 5.30071 118.443 5.14989 118.282 5.00921C117.9 4.67672 117.321 4.71685 116.988 5.09867C116.656 5.48049 116.696 6.05945 117.078 6.39195C117.199 6.49705 117.317 6.61006 117.43 6.72745C117.61 6.91488 117.85 7.00915 118.091 7.00915Z" fill="black"/>
<path d="M91.7325 31.2587C91.3746 30.9006 90.7942 30.9004 90.4361 31.2583C90.0781 31.6162 90.078 32.1966 90.4359 32.5548L90.8109 32.93C90.9899 33.1091 91.2247 33.1986 91.4593 33.1986C91.6938 33.1986 91.9283 33.1092 92.1073 32.9303C92.4653 32.5725 92.4655 31.992 92.1076 31.6339L91.7325 31.2587Z" fill="black"/>
<path d="M100.015 35.6523L98.0704 37.597L94.1813 33.7077C93.8234 33.3498 93.243 33.3498 92.885 33.7076C92.5269 34.0656 92.5269 34.646 92.8849 35.0041L96.7741 38.8934C97.1316 39.2507 97.601 39.4294 98.0705 39.4294C98.5399 39.4294 99.0095 39.2508 99.367 38.8934L101.312 36.9488C101.669 36.5908 101.669 36.0104 101.312 35.6523C100.953 35.2943 100.373 35.2943 100.015 35.6523Z" fill="black"/>
<path d="M94.3803 21.9263C94.7621 22.3082 95.3657 22.3237 95.7285 21.9609L100.983 16.7063C101.346 16.3435 101.33 15.7399 100.949 15.3581C100.567 14.9762 99.9631 14.9607 99.6003 15.3235L94.3457 20.5781C93.983 20.9408 93.9985 21.5445 94.3803 21.9263Z" fill="black"/>
<path d="M98.0825 24.3149L100.053 22.3444L104.992 27.2829C105.355 27.6466 105.944 27.6474 106.307 27.2846C106.67 26.9218 106.669 26.333 106.305 25.9693L101.367 21.0308L103.337 19.0603C103.7 18.6975 103.699 18.1087 103.335 17.745C102.972 17.3813 102.383 17.3806 102.02 17.7434L96.7656 22.9979C96.4028 23.3607 96.4035 23.9496 96.7672 24.3132C97.1309 24.6769 97.7198 24.6776 98.0825 24.3149V24.3149Z" fill="black"/>
</g>
<path d="M2.20039 73V59.88H11.5004V73H9.84039V61.28H3.86039V73H2.20039ZM14.931 77.1V63.28H16.291L16.431 64.4H16.491C16.931 64.0267 17.411 63.7067 17.931 63.44C18.4643 63.1733 19.0177 63.04 19.591 63.04C20.2177 63.04 20.771 63.16 21.251 63.4C21.731 63.6267 22.131 63.96 22.451 64.4C22.771 64.8267 23.011 65.3467 23.171 65.96C23.3443 66.56 23.431 67.24 23.431 68C23.431 68.8267 23.3177 69.5667 23.091 70.22C22.8643 70.86 22.5577 71.4067 22.171 71.86C21.7843 72.3133 21.3377 72.66 20.831 72.9C20.3243 73.1267 19.791 73.24 19.231 73.24C18.7777 73.24 18.3243 73.14 17.871 72.94C17.431 72.74 16.9843 72.4667 16.531 72.12L16.571 73.82V77.1H14.931ZM18.951 71.86C19.351 71.86 19.7177 71.7733 20.051 71.6C20.3977 71.4133 20.691 71.16 20.931 70.84C21.1843 70.5067 21.3777 70.1 21.511 69.62C21.6577 69.14 21.731 68.6 21.731 68C21.731 67.4667 21.6843 66.98 21.591 66.54C21.4977 66.1 21.3443 65.7267 21.131 65.42C20.931 65.1 20.6643 64.8533 20.331 64.68C20.011 64.5067 19.6243 64.42 19.171 64.42C18.7577 64.42 18.3377 64.5333 17.911 64.76C17.4977 64.9867 17.051 65.3133 16.571 65.74V70.84C17.011 71.2133 17.4377 71.48 17.851 71.64C18.2643 71.7867 18.631 71.86 18.951 71.86ZM26.0248 73V63.28H27.6248V67.32C27.6248 67.84 27.6048 68.4133 27.5648 69.04C27.5381 69.6533 27.5048 70.2733 27.4648 70.9H27.5448C27.7314 70.5933 27.9448 70.2467 28.1848 69.86C28.4381 69.4733 28.6514 69.1267 28.8248 68.82L32.5048 63.28H34.0448V73H32.4448V68.96C32.4448 68.44 32.4581 67.8733 32.4848 67.26C32.5248 66.6333 32.5648 66 32.6048 65.36H32.5248C32.3381 65.6667 32.1181 66.02 31.8648 66.42C31.6248 66.8067 31.4181 67.1467 31.2448 67.44L27.5448 73H26.0248ZM37.3334 73V63.28H41.0734C41.6067 63.28 42.0934 63.3267 42.5334 63.42C42.9734 63.5133 43.3467 63.66 43.6534 63.86C43.9734 64.0467 44.22 64.3 44.3934 64.62C44.5667 64.9267 44.6534 65.3 44.6534 65.74C44.6534 66.2867 44.5067 66.7333 44.2134 67.08C43.9334 67.4267 43.54 67.6733 43.0334 67.82V67.88C43.3134 67.9467 43.5734 68.04 43.8134 68.16C44.0667 68.28 44.2867 68.4333 44.4734 68.62C44.66 68.8067 44.8067 69.0333 44.9134 69.3C45.02 69.5667 45.0734 69.8733 45.0734 70.22C45.0734 70.7 44.9734 71.1133 44.7734 71.46C44.5867 71.8067 44.32 72.1 43.9734 72.34C43.64 72.5667 43.24 72.7333 42.7734 72.84C42.3067 72.9467 41.7934 73 41.2334 73H37.3334ZM38.9534 67.36H40.7934C41.6067 67.36 42.1867 67.2333 42.5334 66.98C42.88 66.7133 43.0534 66.3533 43.0534 65.9C43.0534 65.4467 42.8867 65.0933 42.5534 64.84C42.22 64.5867 41.6734 64.46 40.9134 64.46H38.9534V67.36ZM38.9534 71.82H41.0534C41.8534 71.82 42.4467 71.6733 42.8334 71.38C43.2334 71.0867 43.4334 70.6667 43.4334 70.12C43.4334 69.6267 43.2267 69.24 42.8134 68.96C42.4 68.68 41.78 68.54 40.9534 68.54H38.9534V71.82ZM46.9296 73.24C46.7429 73.24 46.5829 73.2267 46.4496 73.2C46.3296 73.1733 46.1963 73.1333 46.0496 73.08L46.3696 71.56C46.4363 71.5867 46.5029 71.6067 46.5696 71.62C46.6363 71.6333 46.7163 71.64 46.8096 71.64C47.1563 71.64 47.4363 71.48 47.6496 71.16C47.8629 70.8267 48.0163 70.3 48.1096 69.58C48.2429 68.5267 48.3696 67.48 48.4896 66.44C48.6096 65.3867 48.7296 64.3333 48.8496 63.28H54.8296V73H53.1696V64.62H50.1496C50.0429 65.5133 49.9363 66.4133 49.8296 67.32C49.7229 68.2133 49.6163 69.1067 49.5096 70C49.2296 72.16 48.3696 73.24 46.9296 73.24ZM62.0546 73.24C61.4013 73.24 60.7879 73.1267 60.2146 72.9C59.6546 72.66 59.1613 72.3267 58.7346 71.9C58.3213 71.46 57.9946 70.9267 57.7546 70.3C57.5146 69.6733 57.3946 68.96 57.3946 68.16C57.3946 67.36 57.5146 66.6467 57.7546 66.02C58.0079 65.38 58.3346 64.84 58.7346 64.4C59.1479 63.96 59.6146 63.6267 60.1346 63.4C60.6546 63.16 61.1946 63.04 61.7546 63.04C62.3679 63.04 62.9146 63.1467 63.3946 63.36C63.8879 63.5733 64.2946 63.88 64.6146 64.28C64.9479 64.68 65.2013 65.16 65.3746 65.72C65.5479 66.28 65.6346 66.9067 65.6346 67.6C65.6346 67.7733 65.6279 67.9467 65.6146 68.12C65.6146 68.28 65.6013 68.42 65.5746 68.54H59.0146C59.0813 69.58 59.4013 70.4067 59.9746 71.02C60.5613 71.62 61.3213 71.92 62.2546 71.92C62.7213 71.92 63.1479 71.8533 63.5346 71.72C63.9346 71.5733 64.3146 71.3867 64.6746 71.16L65.2546 72.24C64.8279 72.5067 64.3546 72.74 63.8346 72.94C63.3146 73.14 62.7213 73.24 62.0546 73.24ZM58.9946 67.36H64.1946C64.1946 66.3733 63.9813 65.6267 63.5546 65.12C63.1413 64.6 62.5546 64.34 61.7946 64.34C61.4479 64.34 61.1146 64.4067 60.7946 64.54C60.4879 64.6733 60.2079 64.8733 59.9546 65.14C59.7013 65.3933 59.4879 65.7067 59.3146 66.08C59.1546 66.4533 59.0479 66.88 58.9946 67.36ZM68.0365 73V63.28H69.6765V67.28H71.5565L72.5165 65.12C72.7032 64.6933 72.8898 64.3467 73.0765 64.08C73.2632 63.8133 73.4632 63.6067 73.6765 63.46C73.8898 63.3 74.1098 63.1933 74.3365 63.14C74.5632 63.0733 74.8098 63.04 75.0765 63.04C75.2898 63.04 75.4765 63.0733 75.6365 63.14L75.3565 64.68C75.2898 64.6533 75.2365 64.64 75.1965 64.64C75.1565 64.64 75.1032 64.64 75.0365 64.64C74.9032 64.64 74.7765 64.66 74.6565 64.7C74.5498 64.7267 74.4365 64.7867 74.3165 64.88C74.2098 64.9733 74.0965 65.1067 73.9765 65.28C73.8565 65.4533 73.7365 65.68 73.6165 65.96L72.7965 67.88L76.0965 73H74.2965L71.5965 68.62H69.6765V73H68.0365ZM80.0421 73.24C79.2288 73.24 78.5488 73 78.0021 72.52C77.4688 72.04 77.2021 71.36 77.2021 70.48C77.2021 69.4133 77.6754 68.6 78.6221 68.04C79.5688 67.4667 81.0821 67.0667 83.1621 66.84C83.1621 66.5333 83.1288 66.2333 83.0621 65.94C83.0088 65.6467 82.9088 65.3867 82.7621 65.16C82.6154 64.9333 82.4088 64.7533 82.1421 64.62C81.8888 64.4733 81.5621 64.4 81.1621 64.4C80.6021 64.4 80.0754 64.5067 79.5821 64.72C79.0888 64.9333 78.6488 65.1733 78.2621 65.44L77.6221 64.3C78.0754 64.0067 78.6288 63.7267 79.2821 63.46C79.9354 63.18 80.6554 63.04 81.4421 63.04C82.6288 63.04 83.4888 63.4067 84.0221 64.14C84.5554 64.86 84.8221 65.8267 84.8221 67.04V73H83.4621L83.3221 71.84H83.2621C82.7954 72.2267 82.2954 72.56 81.7621 72.84C81.2288 73.1067 80.6554 73.24 80.0421 73.24ZM80.5221 71.92C80.9888 71.92 81.4288 71.8133 81.8421 71.6C82.2554 71.3733 82.6954 71.0467 83.1621 70.62V67.92C82.3488 68.0267 81.6621 68.1533 81.1021 68.3C80.5554 68.4467 80.1088 68.62 79.7621 68.82C79.4288 69.02 79.1821 69.2533 79.0221 69.52C78.8754 69.7733 78.8021 70.0533 78.8021 70.36C78.8021 70.92 78.9688 71.32 79.3021 71.56C79.6354 71.8 80.0421 71.92 80.5221 71.92ZM89.7468 73V64.62H86.4868V63.28H94.6468V64.62H91.3868V73H89.7468ZM100.473 73.24C99.8192 73.24 99.2059 73.1267 98.6326 72.9C98.0726 72.66 97.5792 72.3267 97.1526 71.9C96.7392 71.46 96.4126 70.9267 96.1726 70.3C95.9326 69.6733 95.8126 68.96 95.8126 68.16C95.8126 67.36 95.9326 66.6467 96.1726 66.02C96.4259 65.38 96.7526 64.84 97.1526 64.4C97.5659 63.96 98.0326 63.6267 98.5526 63.4C99.0726 63.16 99.6126 63.04 100.173 63.04C100.786 63.04 101.333 63.1467 101.813 63.36C102.306 63.5733 102.713 63.88 103.033 64.28C103.366 64.68 103.619 65.16 103.793 65.72C103.966 66.28 104.053 66.9067 104.053 67.6C104.053 67.7733 104.046 67.9467 104.033 68.12C104.033 68.28 104.019 68.42 103.993 68.54H97.4326C97.4992 69.58 97.8192 70.4067 98.3926 71.02C98.9792 71.62 99.7392 71.92 100.673 71.92C101.139 71.92 101.566 71.8533 101.953 71.72C102.353 71.5733 102.733 71.3867 103.093 71.16L103.673 72.24C103.246 72.5067 102.773 72.74 102.253 72.94C101.733 73.14 101.139 73.24 100.473 73.24ZM97.4126 67.36H102.613C102.613 66.3733 102.399 65.6267 101.973 65.12C101.559 64.6 100.973 64.34 100.213 64.34C99.8659 64.34 99.5326 64.4067 99.2126 64.54C98.9059 64.6733 98.6259 64.8733 98.3726 65.14C98.1192 65.3933 97.9059 65.7067 97.7326 66.08C97.5726 66.4533 97.4659 66.88 97.4126 67.36ZM105.894 73.24C105.708 73.24 105.548 73.2267 105.414 73.2C105.294 73.1733 105.161 73.1333 105.014 73.08L105.334 71.56C105.401 71.5867 105.468 71.6067 105.534 71.62C105.601 71.6333 105.681 71.64 105.774 71.64C106.121 71.64 106.401 71.48 106.614 71.16C106.828 70.8267 106.981 70.3 107.074 69.58C107.208 68.5267 107.334 67.48 107.454 66.44C107.574 65.3867 107.694 64.3333 107.814 63.28H113.794V73H112.134V64.62H109.114C109.008 65.5133 108.901 66.4133 108.794 67.32C108.688 68.2133 108.581 69.1067 108.474 70C108.194 72.16 107.334 73.24 105.894 73.24ZM117.079 73V63.28H118.719V66.86H120.559C121.133 66.86 121.653 66.92 122.119 67.04C122.599 67.16 123.006 67.3467 123.339 67.6C123.686 67.84 123.953 68.1533 124.139 68.54C124.326 68.9133 124.419 69.3667 124.419 69.9C124.419 70.4467 124.326 70.9133 124.139 71.3C123.953 71.6867 123.686 72.0067 123.339 72.26C123.006 72.5133 122.599 72.7 122.119 72.82C121.653 72.94 121.133 73 120.559 73H117.079ZM118.719 71.68H120.379C121.993 71.68 122.799 71.0867 122.799 69.9C122.799 69.2867 122.599 68.84 122.199 68.56C121.813 68.28 121.206 68.14 120.379 68.14H118.719V71.68ZM126.904 73V63.28H128.544V67.22H133.224V63.28H134.864V73H133.224V68.68H128.544V73H126.904ZM138.134 73V63.28H139.774V66.86H141.154C141.727 66.86 142.247 66.92 142.714 67.04C143.194 67.16 143.601 67.3467 143.934 67.6C144.281 67.84 144.547 68.1533 144.734 68.54C144.921 68.9133 145.014 69.3667 145.014 69.9C145.014 70.4467 144.921 70.9133 144.734 71.3C144.547 71.6867 144.281 72.0067 143.934 72.26C143.601 72.5133 143.194 72.7 142.714 72.82C142.247 72.94 141.727 73 141.154 73H138.134ZM139.774 71.68H140.974C142.587 71.68 143.394 71.0867 143.394 69.9C143.394 69.2867 143.194 68.84 142.794 68.56C142.407 68.28 141.801 68.14 140.974 68.14H139.774V71.68ZM146.694 73V63.28H148.334V73H146.694ZM155.551 73.24C154.897 73.24 154.284 73.1267 153.711 72.9C153.151 72.66 152.657 72.3267 152.231 71.9C151.817 71.46 151.491 70.9267 151.251 70.3C151.011 69.6733 150.891 68.96 150.891 68.16C150.891 67.36 151.011 66.6467 151.251 66.02C151.504 65.38 151.831 64.84 152.231 64.4C152.644 63.96 153.111 63.6267 153.631 63.4C154.151 63.16 154.691 63.04 155.251 63.04C155.864 63.04 156.411 63.1467 156.891 63.36C157.384 63.5733 157.791 63.88 158.111 64.28C158.444 64.68 158.697 65.16 158.871 65.72C159.044 66.28 159.131 66.9067 159.131 67.6C159.131 67.7733 159.124 67.9467 159.111 68.12C159.111 68.28 159.097 68.42 159.071 68.54H152.511C152.577 69.58 152.897 70.4067 153.471 71.02C154.057 71.62 154.817 71.92 155.751 71.92C156.217 71.92 156.644 71.8533 157.031 71.72C157.431 71.5733 157.811 71.3867 158.171 71.16L158.751 72.24C158.324 72.5067 157.851 72.74 157.331 72.94C156.811 73.14 156.217 73.24 155.551 73.24ZM152.491 67.36H157.691C157.691 66.3733 157.477 65.6267 157.051 65.12C156.637 64.6 156.051 64.34 155.291 64.34C154.944 64.34 154.611 64.4067 154.291 64.54C153.984 64.6733 153.704 64.8733 153.451 65.14C153.197 65.3933 152.984 65.7067 152.811 66.08C152.651 66.4533 152.544 66.88 152.491 67.36ZM165.536 73V63.28H167.176V71.66H171.536V63.28H173.176V71.66H174.596V72.7L174.436 76.44H173.016V73H165.536ZM180.551 73.24C179.897 73.24 179.284 73.1267 178.711 72.9C178.151 72.66 177.657 72.3267 177.231 71.9C176.817 71.46 176.491 70.9267 176.251 70.3C176.011 69.6733 175.891 68.96 175.891 68.16C175.891 67.36 176.011 66.6467 176.251 66.02C176.504 65.38 176.831 64.84 177.231 64.4C177.644 63.96 178.111 63.6267 178.631 63.4C179.151 63.16 179.691 63.04 180.251 63.04C180.864 63.04 181.411 63.1467 181.891 63.36C182.384 63.5733 182.791 63.88 183.111 64.28C183.444 64.68 183.697 65.16 183.871 65.72C184.044 66.28 184.131 66.9067 184.131 67.6C184.131 67.7733 184.124 67.9467 184.111 68.12C184.111 68.28 184.097 68.42 184.071 68.54H177.511C177.577 69.58 177.897 70.4067 178.471 71.02C179.057 71.62 179.817 71.92 180.751 71.92C181.217 71.92 181.644 71.8533 182.031 71.72C182.431 71.5733 182.811 71.3867 183.171 71.16L183.751 72.24C183.324 72.5067 182.851 72.74 182.331 72.94C181.811 73.14 181.217 73.24 180.551 73.24ZM177.491 67.36H182.691C182.691 66.3733 182.477 65.6267 182.051 65.12C181.637 64.6 181.051 64.34 180.291 64.34C179.944 64.34 179.611 64.4067 179.291 64.54C178.984 64.6733 178.704 64.8733 178.451 65.14C178.197 65.3933 177.984 65.7067 177.811 66.08C177.651 66.4533 177.544 66.88 177.491 67.36ZM186.533 73V63.28H188.173V67.22H192.853V63.28H194.493V73H192.853V68.68H188.173V73H186.533ZM197.763 73V63.28H199.403V66.86H200.783C201.356 66.86 201.876 66.92 202.343 67.04C202.823 67.16 203.23 67.3467 203.563 67.6C203.91 67.84 204.176 68.1533 204.363 68.54C204.55 68.9133 204.643 69.3667 204.643 69.9C204.643 70.4467 204.55 70.9133 204.363 71.3C204.176 71.6867 203.91 72.0067 203.563 72.26C203.23 72.5133 202.823 72.7 202.343 72.82C201.876 72.94 201.356 73 200.783 73H197.763ZM199.403 71.68H200.603C202.216 71.68 203.023 71.0867 203.023 69.9C203.023 69.2867 202.823 68.84 202.423 68.56C202.036 68.28 201.43 68.14 200.603 68.14H199.403V71.68ZM206.323 73V63.28H207.963V73H206.323Z" fill="#13191D"/>
<rect x="75" y="84" width="53" height="3" fill="#13191D"/>
<defs>
<clipPath id="clip0">
<rect width="44" height="44" fill="white" transform="translate(80)"/>
</clipPath>
</defs>
</svg>
