<svg width="129" height="86" viewBox="0 0 129 86" fill="none" xmlns="http://www.w3.org/2000/svg">
<path d="M2.00313 72V58.88H10.1031V60.28H3.66313V64.4H6.18313C6.87646 64.4 7.51646 64.4667 8.10313 64.6C8.68979 64.7333 9.19646 64.9467 9.62313 65.24C10.0498 65.52 10.3831 65.8933 10.6231 66.36C10.8631 66.8133 10.9831 67.3667 10.9831 68.02C10.9831 69.3933 10.5565 70.4 9.70313 71.04C8.84979 71.68 7.70313 72 6.26313 72H2.00313ZM3.66313 70.68H5.98313C7.11646 70.68 7.95646 70.4733 8.50313 70.06C9.06313 69.6333 9.34313 68.9667 9.34313 68.06C9.34313 67.22 9.05646 66.6133 8.48313 66.24C7.92313 65.8667 7.07646 65.68 5.94313 65.68H3.66313V70.68ZM17.2247 72.24C16.6247 72.24 16.0514 72.1267 15.5047 71.9C14.9714 71.6733 14.498 71.3467 14.0847 70.92C13.6714 70.48 13.338 69.9467 13.0847 69.32C12.8447 68.68 12.7247 67.96 12.7247 67.16C12.7247 66.3467 12.8447 65.6267 13.0847 65C13.338 64.36 13.6714 63.82 14.0847 63.38C14.498 62.94 14.9714 62.6067 15.5047 62.38C16.0514 62.1533 16.6247 62.04 17.2247 62.04C17.8247 62.04 18.3914 62.1533 18.9247 62.38C19.4714 62.6067 19.9514 62.94 20.3647 63.38C20.778 63.82 21.1047 64.36 21.3447 65C21.598 65.6267 21.7247 66.3467 21.7247 67.16C21.7247 67.96 21.598 68.68 21.3447 69.32C21.1047 69.9467 20.778 70.48 20.3647 70.92C19.9514 71.3467 19.4714 71.6733 18.9247 71.9C18.3914 72.1267 17.8247 72.24 17.2247 72.24ZM17.2247 70.88C17.638 70.88 18.018 70.7933 18.3647 70.62C18.7114 70.4333 19.0047 70.18 19.2447 69.86C19.498 69.5267 19.6914 69.1333 19.8247 68.68C19.958 68.2267 20.0247 67.72 20.0247 67.16C20.0247 66.6 19.958 66.0933 19.8247 65.64C19.6914 65.1733 19.498 64.7733 19.2447 64.44C19.0047 64.1067 18.7114 63.8533 18.3647 63.68C18.018 63.4933 17.638 63.4 17.2247 63.4C16.8114 63.4 16.4314 63.4933 16.0847 63.68C15.738 63.8533 15.438 64.1067 15.1847 64.44C14.9447 64.7733 14.758 65.1733 14.6247 65.64C14.4914 66.0933 14.4247 66.6 14.4247 67.16C14.4247 67.72 14.4914 68.2267 14.6247 68.68C14.758 69.1333 14.9447 69.5267 15.1847 69.86C15.438 70.18 15.738 70.4333 16.0847 70.62C16.4314 70.7933 16.8114 70.88 17.2247 70.88ZM23.7245 72.24C23.5379 72.24 23.3779 72.2267 23.2445 72.2C23.1245 72.1733 22.9912 72.1333 22.8445 72.08L23.1645 70.56C23.2312 70.5867 23.2979 70.6067 23.3645 70.62C23.4312 70.6333 23.5112 70.64 23.6045 70.64C23.9512 70.64 24.2312 70.48 24.4445 70.16C24.6579 69.8267 24.8112 69.3 24.9045 68.58C25.0379 67.5267 25.1645 66.48 25.2845 65.44C25.4045 64.3867 25.5245 63.3333 25.6445 62.28H31.6245V72H29.9645V63.62H26.9445C26.8379 64.5133 26.7312 65.4133 26.6245 66.32C26.5179 67.2133 26.4112 68.1067 26.3045 69C26.0245 71.16 25.1645 72.24 23.7245 72.24ZM34.9095 72V62.28H36.5495V65.86H38.3895C38.9629 65.86 39.4829 65.92 39.9495 66.04C40.4295 66.16 40.8362 66.3467 41.1695 66.6C41.5162 66.84 41.7829 67.1533 41.9695 67.54C42.1562 67.9133 42.2495 68.3667 42.2495 68.9C42.2495 69.4467 42.1562 69.9133 41.9695 70.3C41.7829 70.6867 41.5162 71.0067 41.1695 71.26C40.8362 71.5133 40.4295 71.7 39.9495 71.82C39.4829 71.94 38.9629 72 38.3895 72H34.9095ZM36.5495 70.68H38.2095C39.8229 70.68 40.6295 70.0867 40.6295 68.9C40.6295 68.2867 40.4295 67.84 40.0295 67.56C39.6429 67.28 39.0362 67.14 38.2095 67.14H36.5495V70.68ZM44.7338 72V62.28H46.3738V70.66H49.7938V62.28H51.3738V70.66H54.8138V62.28H56.4338V72H44.7338ZM63.4942 72.24C62.8942 72.24 62.3209 72.1267 61.7742 71.9C61.2409 71.6733 60.7676 71.3467 60.3542 70.92C59.9409 70.48 59.6076 69.9467 59.3542 69.32C59.1142 68.68 58.9942 67.96 58.9942 67.16C58.9942 66.3467 59.1142 65.6267 59.3542 65C59.6076 64.36 59.9409 63.82 60.3542 63.38C60.7676 62.94 61.2409 62.6067 61.7742 62.38C62.3209 62.1533 62.8942 62.04 63.4942 62.04C64.0942 62.04 64.6609 62.1533 65.1942 62.38C65.7409 62.6067 66.2209 62.94 66.6342 63.38C67.0476 63.82 67.3742 64.36 67.6142 65C67.8676 65.6267 67.9942 66.3467 67.9942 67.16C67.9942 67.96 67.8676 68.68 67.6142 69.32C67.3742 69.9467 67.0476 70.48 66.6342 70.92C66.2209 71.3467 65.7409 71.6733 65.1942 71.9C64.6609 72.1267 64.0942 72.24 63.4942 72.24ZM63.4942 70.88C63.9076 70.88 64.2876 70.7933 64.6342 70.62C64.9809 70.4333 65.2742 70.18 65.5142 69.86C65.7676 69.5267 65.9609 69.1333 66.0942 68.68C66.2276 68.2267 66.2942 67.72 66.2942 67.16C66.2942 66.6 66.2276 66.0933 66.0942 65.64C65.9609 65.1733 65.7676 64.7733 65.5142 64.44C65.2742 64.1067 64.9809 63.8533 64.6342 63.68C64.2876 63.4933 63.9076 63.4 63.4942 63.4C63.0809 63.4 62.7009 63.4933 62.3542 63.68C62.0076 63.8533 61.7076 64.1067 61.4542 64.44C61.2142 64.7733 61.0276 65.1733 60.8942 65.64C60.7609 66.0933 60.6942 66.6 60.6942 67.16C60.6942 67.72 60.7609 68.2267 60.8942 68.68C61.0276 69.1333 61.2142 69.5267 61.4542 69.86C61.7076 70.18 62.0076 70.4333 62.3542 70.62C62.7009 70.7933 63.0809 70.88 63.4942 70.88ZM70.5541 72V62.28H72.1541V66.32C72.1541 66.84 72.1341 67.4133 72.0941 68.04C72.0674 68.6533 72.0341 69.2733 71.9941 69.9H72.0741C72.2607 69.5933 72.4741 69.2467 72.7141 68.86C72.9674 68.4733 73.1807 68.1267 73.3541 67.82L77.0341 62.28H78.5741V72H76.9741V67.96C76.9741 67.44 76.9874 66.8733 77.0141 66.26C77.0541 65.6333 77.0941 65 77.1341 64.36H77.0541C76.8674 64.6667 76.6474 65.02 76.3941 65.42C76.1541 65.8067 75.9474 66.1467 75.7741 66.44L72.0741 72H70.5541ZM74.6141 60.54C74.0541 60.54 73.5807 60.4533 73.1941 60.28C72.8074 60.1067 72.4874 59.88 72.2341 59.6C71.9807 59.3067 71.7941 58.98 71.6741 58.62C71.5541 58.2467 71.4874 57.8667 71.4741 57.48H72.8341C72.8474 57.76 72.8807 58.0333 72.9341 58.3C73.0007 58.5533 73.1007 58.7733 73.2341 58.96C73.3807 59.1467 73.5607 59.3 73.7741 59.42C74.0007 59.5267 74.2807 59.58 74.6141 59.58C74.9474 59.58 75.2207 59.5267 75.4341 59.42C75.6607 59.3 75.8407 59.1467 75.9741 58.96C76.1207 58.7733 76.2207 58.5533 76.2741 58.3C76.3407 58.0333 76.3807 57.76 76.3941 57.48H77.7541C77.7274 57.8667 77.6541 58.2467 77.5341 58.62C77.4274 58.98 77.2474 59.3067 76.9941 59.6C76.7407 59.88 76.4207 60.1067 76.0341 60.28C75.6474 60.4533 75.1741 60.54 74.6141 60.54ZM89.6466 72.24C89.0466 72.24 88.4732 72.1267 87.9266 71.9C87.3932 71.6733 86.9199 71.3467 86.5066 70.92C86.0932 70.48 85.7599 69.9467 85.5066 69.32C85.2666 68.68 85.1466 67.96 85.1466 67.16C85.1466 66.3467 85.2666 65.6267 85.5066 65C85.7599 64.36 86.0932 63.82 86.5066 63.38C86.9199 62.94 87.3932 62.6067 87.9266 62.38C88.4732 62.1533 89.0466 62.04 89.6466 62.04C90.2466 62.04 90.8132 62.1533 91.3466 62.38C91.8932 62.6067 92.3732 62.94 92.7866 63.38C93.1999 63.82 93.5266 64.36 93.7666 65C94.0199 65.6267 94.1466 66.3467 94.1466 67.16C94.1466 67.96 94.0199 68.68 93.7666 69.32C93.5266 69.9467 93.1999 70.48 92.7866 70.92C92.3732 71.3467 91.8932 71.6733 91.3466 71.9C90.8132 72.1267 90.2466 72.24 89.6466 72.24ZM89.6466 70.88C90.0599 70.88 90.4399 70.7933 90.7866 70.62C91.1332 70.4333 91.4266 70.18 91.6666 69.86C91.9199 69.5267 92.1132 69.1333 92.2466 68.68C92.3799 68.2267 92.4466 67.72 92.4466 67.16C92.4466 66.6 92.3799 66.0933 92.2466 65.64C92.1132 65.1733 91.9199 64.7733 91.6666 64.44C91.4266 64.1067 91.1332 63.8533 90.7866 63.68C90.4399 63.4933 90.0599 63.4 89.6466 63.4C89.2332 63.4 88.8532 63.4933 88.5066 63.68C88.1599 63.8533 87.8599 64.1067 87.6066 64.44C87.3666 64.7733 87.1799 65.1733 87.0466 65.64C86.9132 66.0933 86.8466 66.6 86.8466 67.16C86.8466 67.72 86.9132 68.2267 87.0466 68.68C87.1799 69.1333 87.3666 69.5267 87.6066 69.86C87.8599 70.18 88.1599 70.4333 88.5066 70.62C88.8532 70.7933 89.2332 70.88 89.6466 70.88ZM96.7064 72V62.28H104.486V72H102.846V63.62H98.3464V72H96.7064ZM107.761 72V62.28H109.401V65.86H110.781C111.354 65.86 111.874 65.92 112.341 66.04C112.821 66.16 113.228 66.3467 113.561 66.6C113.908 66.84 114.174 67.1533 114.361 67.54C114.548 67.9133 114.641 68.3667 114.641 68.9C114.641 69.4467 114.548 69.9133 114.361 70.3C114.174 70.6867 113.908 71.0067 113.561 71.26C113.228 71.5133 112.821 71.7 112.341 71.82C111.874 71.94 111.354 72 110.781 72H107.761ZM109.401 70.68H110.601C112.214 70.68 113.021 70.0867 113.021 68.9C113.021 68.2867 112.821 67.84 112.421 67.56C112.034 67.28 111.428 67.14 110.601 67.14H109.401V70.68ZM116.321 72V62.28H117.961V72H116.321ZM123.378 72V63.62H120.118V62.28H128.278V63.62H125.018V72H123.378Z" fill="#13191D"/>
<rect x="34" y="83" width="53" height="3" fill="#13191D"/>
<path d="M82.2348 16.3102C80.7089 10.6155 77.0757 5.86704 72.0046 2.93941C68.6819 1.02094 64.8973 0.00679016 61.0604 0.00679016C53.1793 0.00679016 45.8525 4.21738 41.9392 10.9953C39.0115 16.0664 38.2394 21.9953 39.7653 27.6898C41.2912 33.3845 44.9241 38.133 49.9953 41.0609C50.701 41.4682 51.4274 41.8345 52.171 42.1593H51.8296C51.3232 42.1593 50.9126 42.5699 50.9126 43.0763C50.9126 43.5827 51.3233 43.9934 51.8296 43.9934H70.1709C70.6772 43.9934 71.0879 43.5826 71.0879 43.0763C71.0879 42.5698 70.6771 42.1593 70.1709 42.1593H69.7616C74.0298 40.3069 77.678 37.1318 80.0608 33.0048C82.9886 27.9335 83.7607 22.0046 82.2348 16.3102ZM78.4724 32.0876C74.8859 38.3 68.1676 42.159 60.9396 42.159C57.4241 42.159 53.9565 41.2301 50.9122 39.4724C41.2779 33.9099 37.9655 21.5463 43.5276 11.9123C47.1144 5.70006 53.8325 1.84087 61.0605 1.84087C64.5759 1.84087 68.0433 2.76994 71.0877 4.52779C75.7345 7.21059 79.0642 11.5636 80.4632 16.7847C81.8622 22.0059 81.1553 27.4407 78.4724 32.0876Z" fill="black"/>
<path d="M56.7278 37.9447C51.0495 36.4231 46.5767 31.9505 45.0551 26.2724C44.924 25.7831 44.4218 25.4929 43.9319 25.6239C43.4428 25.755 43.1524 26.2579 43.2835 26.7471C44.9742 33.0562 49.9439 38.0257 56.2532 39.7164C56.3327 39.7377 56.4126 39.7479 56.4911 39.7479C56.896 39.7479 57.2667 39.4777 57.3764 39.0678C57.5075 38.5786 57.2172 38.0758 56.7278 37.9447Z" fill="black"/>
<path d="M65.7469 4.28375C65.2578 4.15279 64.7549 4.443 64.6237 4.93215C64.4926 5.42131 64.783 5.92422 65.2723 6.05536C70.9506 7.57697 75.4233 12.0496 76.9449 17.7276C77.0546 18.1373 77.4252 18.4076 77.8302 18.4076C77.9086 18.4076 77.9886 18.3974 78.0681 18.376C78.5572 18.2449 78.8476 17.742 78.7165 17.2528C77.0258 10.9439 72.0563 5.97432 65.7469 4.28375Z" fill="black"/>
<path d="M60.4518 38.4984C60.2218 38.4905 59.991 38.4779 59.7659 38.461C59.2596 38.4223 58.8204 38.8011 58.782 39.3061C58.7439 39.8112 59.1222 40.2517 59.6273 40.29C59.8778 40.309 60.1345 40.3229 60.3899 40.3315C60.4005 40.3318 60.4109 40.332 60.4215 40.332C60.9136 40.332 61.3208 39.9413 61.3374 39.4457C61.3546 38.9394 60.958 38.5153 60.4518 38.4984Z" fill="black"/>
<path d="M61.5478 5.50198C61.7763 5.50971 62.0078 5.52226 62.2354 5.53919C62.2585 5.54082 62.2816 5.54168 62.3043 5.54168C62.7799 5.54168 63.1821 5.17447 63.218 4.69244C63.2554 4.1873 62.8764 3.74739 62.3713 3.71001C62.1191 3.69119 61.8632 3.67744 61.6103 3.66884C61.1018 3.65019 60.6798 4.04783 60.6625 4.554C60.6453 5.06034 61.0417 5.4847 61.5478 5.50198Z" fill="black"/>
<path d="M70.2725 16.7949H65.3782C65.7713 14.9346 66.0327 12.9591 64.9734 11.5003C64.2627 10.5213 63.0529 9.94445 61.3777 9.78598C61.3189 9.78039 61.2593 9.77756 61.2003 9.77756C60.2381 9.77756 59.4135 10.5279 59.3233 11.485C59.0106 14.7831 58.1184 16.6308 57.2035 17.455C57.0925 17.0738 56.7408 16.795 56.3237 16.795H50.4957C49.9893 16.795 49.5786 17.2056 49.5786 17.712V29.637C49.5786 30.1435 49.9894 30.5541 50.4957 30.5541H56.3237C56.752 30.5541 57.1107 30.26 57.2116 29.8629C57.8996 30.3097 58.761 30.5541 59.7548 30.5541H69.4453C70.4271 30.5541 71.2248 29.7971 71.3422 28.7541L72.4017 19.3354C72.4854 18.5953 72.3016 17.9306 71.8843 17.4636C71.6115 17.1585 71.1107 16.7949 70.2725 16.7949ZM55.4067 18.8813V26.1593V28.7199H51.4127V22.297H53.4096C53.9162 22.297 54.3267 21.8862 54.3267 21.38C54.3267 20.8735 53.9161 20.4629 53.4096 20.4629H51.4127V18.6289H55.4067V18.8813ZM70.5792 19.13L69.5195 28.5491C69.5074 28.6551 69.4604 28.7126 69.4494 28.7197C69.4494 28.7197 69.4482 28.7199 69.4453 28.7199H59.7548C57.5673 28.7199 57.2408 27.1156 57.2408 26.1593V19.5717C57.8386 19.3259 58.5788 18.8343 59.2658 17.8561C60.2595 16.4412 60.8932 14.356 61.1493 11.6577C61.1517 11.6317 61.1749 11.6109 61.2049 11.6118C62.3329 11.7187 63.1014 12.0436 63.4892 12.5777C64.221 13.5858 63.7881 15.5181 63.4062 17.223L63.3414 17.5126C63.2811 17.7844 63.3473 18.0686 63.5213 18.2855C63.6953 18.5026 63.9585 18.6289 64.2367 18.6289H70.2725C70.3917 18.6289 70.4851 18.6505 70.5164 18.6854C70.5646 18.7397 70.6049 18.9015 70.5792 19.13Z" fill="black"/>
</svg>
