<svg width="181" height="83" viewBox="0 0 181 83" fill="none" xmlns="http://www.w3.org/2000/svg">
<path d="M7.15258 69.24C6.32591 69.24 5.56591 69.0867 4.87258 68.78C4.17924 68.4733 3.57258 68.0333 3.05258 67.46C2.54591 66.8733 2.14591 66.16 1.85258 65.32C1.57258 64.4667 1.43258 63.5067 1.43258 62.44C1.43258 61.3867 1.57924 60.44 1.87258 59.6C2.16591 58.76 2.57258 58.0467 3.09258 57.46C3.61258 56.8733 4.22591 56.4267 4.93258 56.12C5.63924 55.8 6.41258 55.64 7.25258 55.64C8.05258 55.64 8.75258 55.8067 9.35258 56.14C9.96591 56.46 10.4659 56.8333 10.8526 57.26L9.95258 58.34C9.60591 57.9667 9.21258 57.6667 8.77258 57.44C8.33258 57.2133 7.83258 57.1 7.27258 57.1C6.64591 57.1 6.07925 57.2267 5.57258 57.48C5.06591 57.72 4.63258 58.0733 4.27258 58.54C3.91258 58.9933 3.63258 59.5467 3.43258 60.2C3.24591 60.8533 3.15258 61.5867 3.15258 62.4C3.15258 63.2267 3.24591 63.9733 3.43258 64.64C3.63258 65.2933 3.90591 65.8533 4.25258 66.32C4.59924 66.7867 5.01925 67.1467 5.51258 67.4C6.01924 67.6533 6.58591 67.78 7.21258 67.78C7.85258 67.78 8.41258 67.6533 8.89258 67.4C9.37258 67.1333 9.82591 66.7667 10.2526 66.3L11.1726 67.34C10.6526 67.94 10.0659 68.4067 9.41258 68.74C8.75925 69.0733 8.00591 69.24 7.15258 69.24ZM13.4584 73.1V59.28H14.8184L14.9584 60.4H15.0184C15.4584 60.0267 15.9384 59.7067 16.4584 59.44C16.9917 59.1733 17.545 59.04 18.1184 59.04C18.745 59.04 19.2984 59.16 19.7784 59.4C20.2584 59.6267 20.6584 59.96 20.9784 60.4C21.2984 60.8267 21.5384 61.3467 21.6984 61.96C21.8717 62.56 21.9584 63.24 21.9584 64C21.9584 64.8267 21.845 65.5667 21.6184 66.22C21.3917 66.86 21.085 67.4067 20.6984 67.86C20.3117 68.3133 19.865 68.66 19.3584 68.9C18.8517 69.1267 18.3184 69.24 17.7584 69.24C17.305 69.24 16.8517 69.14 16.3984 68.94C15.9584 68.74 15.5117 68.4667 15.0584 68.12L15.0984 69.82V73.1H13.4584ZM17.4784 67.86C17.8784 67.86 18.245 67.7733 18.5784 67.6C18.925 67.4133 19.2184 67.16 19.4584 66.84C19.7117 66.5067 19.905 66.1 20.0384 65.62C20.185 65.14 20.2584 64.6 20.2584 64C20.2584 63.4667 20.2117 62.98 20.1184 62.54C20.025 62.1 19.8717 61.7267 19.6584 61.42C19.4584 61.1 19.1917 60.8533 18.8584 60.68C18.5384 60.5067 18.1517 60.42 17.6984 60.42C17.285 60.42 16.865 60.5333 16.4384 60.76C16.025 60.9867 15.5784 61.3133 15.0984 61.74V66.84C15.5384 67.2133 15.965 67.48 16.3784 67.64C16.7917 67.7867 17.1584 67.86 17.4784 67.86ZM28.3321 69.24C27.7321 69.24 27.1588 69.1267 26.6121 68.9C26.0788 68.6733 25.6054 68.3467 25.1921 67.92C24.7788 67.48 24.4454 66.9467 24.1921 66.32C23.9521 65.68 23.8321 64.96 23.8321 64.16C23.8321 63.3467 23.9521 62.6267 24.1921 62C24.4454 61.36 24.7788 60.82 25.1921 60.38C25.6054 59.94 26.0788 59.6067 26.6121 59.38C27.1588 59.1533 27.7321 59.04 28.3321 59.04C28.9321 59.04 29.4988 59.1533 30.0321 59.38C30.5788 59.6067 31.0588 59.94 31.4721 60.38C31.8854 60.82 32.2121 61.36 32.4521 62C32.7054 62.6267 32.8321 63.3467 32.8321 64.16C32.8321 64.96 32.7054 65.68 32.4521 66.32C32.2121 66.9467 31.8854 67.48 31.4721 67.92C31.0588 68.3467 30.5788 68.6733 30.0321 68.9C29.4988 69.1267 28.9321 69.24 28.3321 69.24ZM28.3321 67.88C28.7454 67.88 29.1254 67.7933 29.4721 67.62C29.8188 67.4333 30.1121 67.18 30.3521 66.86C30.6054 66.5267 30.7988 66.1333 30.9321 65.68C31.0654 65.2267 31.1321 64.72 31.1321 64.16C31.1321 63.6 31.0654 63.0933 30.9321 62.64C30.7988 62.1733 30.6054 61.7733 30.3521 61.44C30.1121 61.1067 29.8188 60.8533 29.4721 60.68C29.1254 60.4933 28.7454 60.4 28.3321 60.4C27.9188 60.4 27.5388 60.4933 27.1921 60.68C26.8454 60.8533 26.5454 61.1067 26.2921 61.44C26.0521 61.7733 25.8654 62.1733 25.7321 62.64C25.5988 63.0933 25.5321 63.6 25.5321 64.16C25.5321 64.72 25.5988 65.2267 25.7321 65.68C25.8654 66.1333 26.0521 66.5267 26.2921 66.86C26.5454 67.18 26.8454 67.4333 27.1921 67.62C27.5388 67.7933 27.9188 67.88 28.3321 67.88ZM35.392 69V59.28H37.032V63.28H38.912L39.872 61.12C40.0586 60.6933 40.2453 60.3467 40.432 60.08C40.6186 59.8133 40.8186 59.6067 41.032 59.46C41.2453 59.3 41.4653 59.1933 41.692 59.14C41.9186 59.0733 42.1653 59.04 42.432 59.04C42.6453 59.04 42.832 59.0733 42.992 59.14L42.712 60.68C42.6453 60.6533 42.592 60.64 42.552 60.64C42.512 60.64 42.4586 60.64 42.392 60.64C42.2586 60.64 42.132 60.66 42.012 60.7C41.9053 60.7267 41.792 60.7867 41.672 60.88C41.5653 60.9733 41.452 61.1067 41.332 61.28C41.212 61.4533 41.092 61.68 40.972 61.96L40.152 63.88L43.452 69H41.652L38.952 64.62H37.032V69H35.392ZM45.3529 69V59.28H46.9529V63.32C46.9529 63.84 46.9329 64.4133 46.8929 65.04C46.8662 65.6533 46.8329 66.2733 46.7929 66.9H46.8729C47.0596 66.5933 47.2729 66.2467 47.5129 65.86C47.7662 65.4733 47.9796 65.1267 48.1529 64.82L51.8329 59.28H53.3729V69H51.7729V64.96C51.7729 64.44 51.7862 63.8733 51.8129 63.26C51.8529 62.6333 51.8929 62 51.9329 61.36H51.8529C51.6662 61.6667 51.4462 62.02 51.1929 62.42C50.9529 62.8067 50.7462 63.1467 50.5729 63.44L46.8729 69H45.3529ZM60.6654 69V59.28H62.2654V63.32C62.2654 63.84 62.2454 64.4133 62.2054 65.04C62.1787 65.6533 62.1454 66.2733 62.1054 66.9H62.1854C62.3721 66.5933 62.5854 66.2467 62.8254 65.86C63.0787 65.4733 63.2921 65.1267 63.4654 64.82L67.1454 59.28H68.6854V69H67.0854V64.96C67.0854 64.44 67.0987 63.8733 67.1254 63.26C67.1654 62.6333 67.2054 62 67.2454 61.36H67.1654C66.9787 61.6667 66.7587 62.02 66.5054 62.42C66.2654 62.8067 66.0587 63.1467 65.8854 63.44L62.1854 69H60.6654ZM74.754 69.24C74.074 69.24 73.434 69.1533 72.834 68.98C72.234 68.7933 71.6473 68.4667 71.074 68L71.774 66.94C72.2273 67.3133 72.6873 67.5733 73.154 67.72C73.634 67.8533 74.1207 67.92 74.614 67.92C74.9473 67.92 75.2607 67.88 75.554 67.8C75.8473 67.72 76.1007 67.6067 76.314 67.46C76.5407 67.3133 76.714 67.1333 76.834 66.92C76.9673 66.6933 77.034 66.4467 77.034 66.18C77.034 65.62 76.8207 65.2067 76.394 64.94C75.9673 64.6733 75.354 64.54 74.554 64.54H73.214V63.36H74.314C75.1007 63.36 75.6873 63.2267 76.074 62.96C76.4607 62.68 76.654 62.3 76.654 61.82C76.654 61.3267 76.4673 60.96 76.094 60.72C75.7207 60.4667 75.234 60.34 74.634 60.34C74.074 60.34 73.5873 60.4133 73.174 60.56C72.774 60.7067 72.3807 60.92 71.994 61.2L71.294 60.12C71.7607 59.7867 72.2673 59.5267 72.814 59.34C73.374 59.14 74.0073 59.04 74.714 59.04C75.194 59.04 75.6473 59.0933 76.074 59.2C76.5007 59.3067 76.874 59.4667 77.194 59.68C77.514 59.8933 77.7673 60.1667 77.954 60.5C78.154 60.8333 78.254 61.22 78.254 61.66C78.254 62.1267 78.114 62.5533 77.834 62.94C77.554 63.3267 77.1607 63.62 76.654 63.82V63.9C77.214 64.0467 77.6873 64.3133 78.074 64.7C78.474 65.0733 78.674 65.6133 78.674 66.32C78.674 66.7733 78.5673 67.18 78.354 67.54C78.1407 67.9 77.854 68.2067 77.494 68.46C77.134 68.7133 76.714 68.9067 76.234 69.04C75.7673 69.1733 75.274 69.24 74.754 69.24ZM81.0951 69V59.28H87.1551V60.62H82.7351V69H81.0951ZM92.2384 69.24C91.6384 69.24 91.065 69.1267 90.5184 68.9C89.985 68.6733 89.5117 68.3467 89.0984 67.92C88.685 67.48 88.3517 66.9467 88.0984 66.32C87.8584 65.68 87.7384 64.96 87.7384 64.16C87.7384 63.3467 87.8584 62.6267 88.0984 62C88.3517 61.36 88.685 60.82 89.0984 60.38C89.5117 59.94 89.985 59.6067 90.5184 59.38C91.065 59.1533 91.6384 59.04 92.2384 59.04C92.8384 59.04 93.405 59.1533 93.9384 59.38C94.485 59.6067 94.965 59.94 95.3784 60.38C95.7917 60.82 96.1184 61.36 96.3584 62C96.6117 62.6267 96.7384 63.3467 96.7384 64.16C96.7384 64.96 96.6117 65.68 96.3584 66.32C96.1184 66.9467 95.7917 67.48 95.3784 67.92C94.965 68.3467 94.485 68.6733 93.9384 68.9C93.405 69.1267 92.8384 69.24 92.2384 69.24ZM92.2384 67.88C92.6517 67.88 93.0317 67.7933 93.3784 67.62C93.725 67.4333 94.0184 67.18 94.2584 66.86C94.5117 66.5267 94.705 66.1333 94.8384 65.68C94.9717 65.2267 95.0384 64.72 95.0384 64.16C95.0384 63.6 94.9717 63.0933 94.8384 62.64C94.705 62.1733 94.5117 61.7733 94.2584 61.44C94.0184 61.1067 93.725 60.8533 93.3784 60.68C93.0317 60.4933 92.6517 60.4 92.2384 60.4C91.825 60.4 91.445 60.4933 91.0984 60.68C90.7517 60.8533 90.4517 61.1067 90.1984 61.44C89.9584 61.7733 89.7717 62.1733 89.6384 62.64C89.505 63.0933 89.4384 63.6 89.4384 64.16C89.4384 64.72 89.505 65.2267 89.6384 65.68C89.7717 66.1333 89.9584 66.5267 90.1984 66.86C90.4517 67.18 90.7517 67.4333 91.0984 67.62C91.445 67.7933 91.825 67.88 92.2384 67.88ZM101.106 69V60.62H97.8462V59.28H106.006V60.62H102.746V69H101.106ZM111.672 69.24C111.072 69.24 110.499 69.1267 109.952 68.9C109.419 68.6733 108.945 68.3467 108.532 67.92C108.119 67.48 107.785 66.9467 107.532 66.32C107.292 65.68 107.172 64.96 107.172 64.16C107.172 63.3467 107.292 62.6267 107.532 62C107.785 61.36 108.119 60.82 108.532 60.38C108.945 59.94 109.419 59.6067 109.952 59.38C110.499 59.1533 111.072 59.04 111.672 59.04C112.272 59.04 112.839 59.1533 113.372 59.38C113.919 59.6067 114.399 59.94 114.812 60.38C115.225 60.82 115.552 61.36 115.792 62C116.045 62.6267 116.172 63.3467 116.172 64.16C116.172 64.96 116.045 65.68 115.792 66.32C115.552 66.9467 115.225 67.48 114.812 67.92C114.399 68.3467 113.919 68.6733 113.372 68.9C112.839 69.1267 112.272 69.24 111.672 69.24ZM111.672 67.88C112.085 67.88 112.465 67.7933 112.812 67.62C113.159 67.4333 113.452 67.18 113.692 66.86C113.945 66.5267 114.139 66.1333 114.272 65.68C114.405 65.2267 114.472 64.72 114.472 64.16C114.472 63.6 114.405 63.0933 114.272 62.64C114.139 62.1733 113.945 61.7733 113.692 61.44C113.452 61.1067 113.159 60.8533 112.812 60.68C112.465 60.4933 112.085 60.4 111.672 60.4C111.259 60.4 110.879 60.4933 110.532 60.68C110.185 60.8533 109.885 61.1067 109.632 61.44C109.392 61.7733 109.205 62.1733 109.072 62.64C108.939 63.0933 108.872 63.6 108.872 64.16C108.872 64.72 108.939 65.2267 109.072 65.68C109.205 66.1333 109.392 66.5267 109.632 66.86C109.885 67.18 110.185 67.4333 110.532 67.62C110.879 67.7933 111.259 67.88 111.672 67.88ZM118.732 69V59.28H122.472C123.005 59.28 123.492 59.3267 123.932 59.42C124.372 59.5133 124.745 59.66 125.052 59.86C125.372 60.0467 125.618 60.3 125.792 60.62C125.965 60.9267 126.052 61.3 126.052 61.74C126.052 62.2867 125.905 62.7333 125.612 63.08C125.332 63.4267 124.938 63.6733 124.432 63.82V63.88C124.712 63.9467 124.972 64.04 125.212 64.16C125.465 64.28 125.685 64.4333 125.872 64.62C126.058 64.8067 126.205 65.0333 126.312 65.3C126.418 65.5667 126.472 65.8733 126.472 66.22C126.472 66.7 126.372 67.1133 126.172 67.46C125.985 67.8067 125.718 68.1 125.372 68.34C125.038 68.5667 124.638 68.7333 124.172 68.84C123.705 68.9467 123.192 69 122.632 69H118.732ZM120.352 63.36H122.192C123.005 63.36 123.585 63.2333 123.932 62.98C124.278 62.7133 124.452 62.3533 124.452 61.9C124.452 61.4467 124.285 61.0933 123.952 60.84C123.618 60.5867 123.072 60.46 122.312 60.46H120.352V63.36ZM120.352 67.82H122.452C123.252 67.82 123.845 67.6733 124.232 67.38C124.632 67.0867 124.832 66.6667 124.832 66.12C124.832 65.6267 124.625 65.24 124.212 64.96C123.798 64.68 123.178 64.54 122.352 64.54H120.352V67.82ZM128.328 69.24C128.141 69.24 127.981 69.2267 127.848 69.2C127.728 69.1733 127.595 69.1333 127.448 69.08L127.768 67.56C127.835 67.5867 127.901 67.6067 127.968 67.62C128.035 67.6333 128.115 67.64 128.208 67.64C128.555 67.64 128.835 67.48 129.048 67.16C129.261 66.8267 129.415 66.3 129.508 65.58C129.641 64.5267 129.768 63.48 129.888 62.44C130.008 61.3867 130.128 60.3333 130.248 59.28H136.228V69H134.568V60.62H131.548C131.441 61.5133 131.335 62.4133 131.228 63.32C131.121 64.2133 131.015 65.1067 130.908 66C130.628 68.16 129.768 69.24 128.328 69.24ZM143.453 69.24C142.8 69.24 142.186 69.1267 141.613 68.9C141.053 68.66 140.56 68.3267 140.133 67.9C139.72 67.46 139.393 66.9267 139.153 66.3C138.913 65.6733 138.793 64.96 138.793 64.16C138.793 63.36 138.913 62.6467 139.153 62.02C139.406 61.38 139.733 60.84 140.133 60.4C140.546 59.96 141.013 59.6267 141.533 59.4C142.053 59.16 142.593 59.04 143.153 59.04C143.766 59.04 144.313 59.1467 144.793 59.36C145.286 59.5733 145.693 59.88 146.013 60.28C146.346 60.68 146.6 61.16 146.773 61.72C146.946 62.28 147.033 62.9067 147.033 63.6C147.033 63.7733 147.026 63.9467 147.013 64.12C147.013 64.28 147 64.42 146.973 64.54H140.413C140.48 65.58 140.8 66.4067 141.373 67.02C141.96 67.62 142.72 67.92 143.653 67.92C144.12 67.92 144.546 67.8533 144.933 67.72C145.333 67.5733 145.713 67.3867 146.073 67.16L146.653 68.24C146.226 68.5067 145.753 68.74 145.233 68.94C144.713 69.14 144.12 69.24 143.453 69.24ZM140.393 63.36H145.593C145.593 62.3733 145.38 61.6267 144.953 61.12C144.54 60.6 143.953 60.34 143.193 60.34C142.846 60.34 142.513 60.4067 142.193 60.54C141.886 60.6733 141.606 60.8733 141.353 61.14C141.1 61.3933 140.886 61.7067 140.713 62.08C140.553 62.4533 140.446 62.88 140.393 63.36ZM149.435 69V59.28H151.075V63.22H155.755V59.28H157.395V69H155.755V64.68H151.075V69H149.435ZM160.665 69V59.28H162.265V63.32C162.265 63.84 162.245 64.4133 162.205 65.04C162.179 65.6533 162.145 66.2733 162.105 66.9H162.185C162.372 66.5933 162.585 66.2467 162.825 65.86C163.079 65.4733 163.292 65.1267 163.465 64.82L167.145 59.28H168.685V69H167.085V64.96C167.085 64.44 167.099 63.8733 167.125 63.26C167.165 62.6333 167.205 62 167.245 61.36H167.165C166.979 61.6667 166.759 62.02 166.505 62.42C166.265 62.8067 166.059 63.1467 165.885 63.44L162.185 69H160.665ZM177.334 69V65.16H175.534H175.514L172.834 69H170.974L173.934 64.94C173.307 64.7533 172.781 64.44 172.354 64C171.927 63.5467 171.714 62.9333 171.714 62.16C171.714 61.6267 171.807 61.18 171.994 60.82C172.194 60.4467 172.461 60.1467 172.794 59.92C173.141 59.6933 173.547 59.5333 174.014 59.44C174.481 59.3333 174.987 59.28 175.534 59.28H178.974V69H177.334ZM175.814 63.96H177.334V60.56H175.814C175.054 60.56 174.454 60.6933 174.014 60.96C173.587 61.2133 173.374 61.6267 173.374 62.2C173.374 62.7733 173.587 63.2133 174.014 63.52C174.454 63.8133 175.054 63.96 175.814 63.96Z" fill="#13191D"/>
<rect x="60" y="80" width="53" height="3" fill="#13191D"/>
<g clip-path="url(#clip0)">
<path d="M108.417 3.66753H104.75V2.75092C104.75 1.23455 103.516 0.00100708 102 0.00100708C100.484 0.00100708 99.2499 1.23455 99.2499 2.75092V3.66753H82.7501V2.75092C82.7501 1.23455 81.5164 0.00100708 79.9999 0.00100708C78.4836 0.00100708 77.2501 1.23455 77.2501 2.75092V3.66753H73.5834C71.0561 3.66753 69 5.7235 69 8.25075V43.0842C69 43.5904 69.4105 44.0009 69.9167 44.0009H112.083C112.59 44.0009 113 43.5904 113 43.0842V8.25075C113 5.7235 110.944 3.66753 108.417 3.66753ZM101.083 2.75092C101.083 2.24544 101.494 1.83431 102 1.83431C102.506 1.83431 102.917 2.24544 102.917 2.75092V6.41779C102.917 6.92327 102.506 7.3344 102 7.3344C101.494 7.3344 101.083 6.92327 101.083 6.41779V2.75092ZM79.0834 2.75092C79.0834 2.24544 79.4946 1.83431 80.0001 1.83431C80.5056 1.83431 80.9168 2.24544 80.9168 2.75092V6.41779C80.9168 6.92327 80.5056 7.3344 80.0001 7.3344H79.9999C79.4944 7.3344 79.0834 6.92327 79.0834 6.41779V2.75092ZM111.167 42.1674H70.8333V12.8342H105.472C105.978 12.8342 106.388 12.4237 106.388 11.9175C106.388 11.4114 105.978 11.0009 105.472 11.0009H70.8333V8.25075C70.8333 6.73447 72.0669 5.50092 73.5833 5.50092H77.25V6.41787C77.25 7.93424 78.4835 9.16779 80 9.16779C81.5165 9.16779 82.75 7.93424 82.75 6.41787V5.50092H99.2497V6.41787C99.2497 7.93424 100.483 9.16779 102 9.16779C103.516 9.16779 104.75 7.93424 104.75 6.41787V5.50092H108.417C109.933 5.50092 111.166 6.73447 111.166 8.25075V42.1674H111.167Z" fill="black"/>
<path d="M108.856 11H108.302C107.796 11 107.386 11.4105 107.386 11.9167C107.386 12.4229 107.796 12.8334 108.302 12.8334H108.856C109.362 12.8334 109.772 12.4229 109.772 11.9167C109.772 11.4105 109.362 11 108.856 11Z" fill="black"/>
<path d="M107.5 15.5835H74.5002C73.9939 15.5835 73.5835 15.994 73.5835 16.5001V33.0001C73.5835 33.5064 73.9939 33.9168 74.5002 33.9168H79.0834V37.5834H77.72C77.2137 37.5834 76.8033 37.9939 76.8033 38.5001C76.8033 39.0062 77.2136 39.4168 77.72 39.4168H107.5C108.006 39.4168 108.417 39.0062 108.417 38.5001V16.5001C108.417 15.9939 108.006 15.5835 107.5 15.5835ZM91.9166 17.4168H95.5831V21.0832H91.9166V17.4168ZM91.9166 28.4167H95.5831V32.0835H91.9166V28.4167ZM79.0833 32.0835H75.4168V28.4167H79.0833V32.0835ZM79.0833 26.5834H75.4168V22.9166H79.0833V26.5834ZM79.0833 21.0832H75.4168V17.4168H79.0833V21.0832ZM84.5834 37.5834H80.9167V33.9168H84.5834V37.5834ZM84.5834 32.0835H80.9167V28.4167H84.5834V32.0835ZM84.5834 26.5834H80.9167V22.9166H84.5834V26.5834ZM84.5834 21.0832H80.9167V17.4168H84.5834V21.0832ZM90.0832 37.5834H86.4167V33.9168H90.0832V37.5834ZM90.0832 32.0835H86.4167V28.4167H90.0832V32.0835ZM90.0832 26.5834H86.4167V22.9166H90.0832V26.5834ZM90.0832 21.0832H86.4167V17.4168H90.0832V21.0832ZM95.5831 37.5834H91.9166V33.9168H95.5831V37.5834ZM95.5831 26.5834H91.9166V22.9166H95.5831V26.5834ZM101.083 37.5834H97.4164V33.9168H101.083V37.5834V37.5834ZM101.083 32.0835H97.4164V28.4167H101.083V32.0835V32.0835ZM101.083 26.5834H97.4164V22.9166H101.083V26.5834V26.5834ZM101.083 21.0832H97.4164V17.4168H101.083V21.0832V21.0832ZM106.583 37.5834H102.917V33.9168H106.583V37.5834ZM106.583 32.0835H102.917V28.4167H106.583V32.0835ZM106.583 26.5834H102.917V22.9166H106.583V26.5834ZM106.583 21.0832H102.917V17.4168H106.583V21.0832Z" fill="black"/>
<path d="M74.8819 37.5833H74.5C73.9937 37.5833 73.5833 37.9938 73.5833 38.5C73.5833 39.0061 73.9937 39.4167 74.5 39.4167H74.8819C75.388 39.4167 75.7986 39.0061 75.7986 38.5C75.7986 37.9938 75.3881 37.5833 74.8819 37.5833Z" fill="black"/>
</g>
<defs>
<clipPath id="clip0">
<rect width="44" height="44" fill="white" transform="translate(69)"/>
</clipPath>
</defs>
</svg>
